<svg width="544" height="115" viewBox="0 0 544 115" fill="none" xmlns="http://www.w3.org/2000/svg">
    <g clip-path="url(#79hwkg99ea)">
        <path d="M0 8a8 8 0 0 1 8-8h528a8 8 0 0 1 8 8v107H0V8z" fill="#DCCAFD"/>
        <path d="M553 92c-5.192-11.734-20.29-21.417-32.221-16.695-2.453.978-4.786 2.337-7.406 2.647-3.596.43-7.192-1.264-9.907-3.673-2.715-2.408-4.739-5.461-6.882-8.419-5.454-7.56-12.312-14.906-21.362-17.172-10.907-2.719-22.695 2.91-29.648 11.758C438.62 69.295 435.834 80.766 435 92h118zM-28 125c7.92-17.868 30.95-32.613 49.15-25.422 3.742 1.489 7.302 3.559 11.298 4.031 5.485.654 10.97-1.925 15.112-5.593 4.141-3.668 7.23-8.316 10.498-12.82 8.32-11.512 18.782-22.698 32.586-26.148 16.638-4.14 34.619 4.43 45.227 17.904C146.478 90.426 150.729 107.895 152 125H-28z" fill="#BA98FD"/>
        <path d="M90.912 81.336c-3.168 0-6.08-.736-8.736-2.208a17.048 17.048 0 0 1-6.336-6.192c-1.536-2.656-2.304-5.648-2.304-8.976 0-3.328.768-6.304 2.304-8.928 1.568-2.656 3.68-4.72 6.336-6.192 2.656-1.472 5.568-2.208 8.736-2.208 3.2 0 6.112.736 8.736 2.208 2.656 1.472 4.752 3.536 6.288 6.192 1.536 2.624 2.304 5.6 2.304 8.928 0 3.328-.768 6.32-2.304 8.976a16.687 16.687 0 0 1-6.288 6.192c-2.656 1.472-5.568 2.208-8.736 2.208zm0-8.736c2.4 0 4.288-.784 5.664-2.352 1.408-1.568 2.112-3.664 2.112-6.288 0-2.688-.704-4.8-2.112-6.336-1.376-1.568-3.264-2.352-5.664-2.352-2.432 0-4.336.784-5.712 2.352-1.376 1.536-2.064 3.648-2.064 6.336 0 2.656.688 4.768 2.064 6.336 1.376 1.536 3.28 2.304 5.712 2.304zm39.269-18.768c3.072 0 5.504 1.04 7.296 3.12 1.824 2.048 2.736 4.832 2.736 8.352V81h-9.408V66.552c0-1.536-.4-2.736-1.2-3.6-.8-.896-1.872-1.344-3.216-1.344-1.408 0-2.512.448-3.312 1.344-.8.864-1.2 2.064-1.2 3.6V81h-9.408V45.48h9.408v12.432c.832-1.216 1.952-2.192 3.36-2.928 1.44-.768 3.088-1.152 4.944-1.152zm27.723 27.504c-2.688 0-5.104-.56-7.248-1.68-2.112-1.12-3.776-2.72-4.992-4.8-1.216-2.08-1.824-4.528-1.824-7.344 0-2.784.608-5.216 1.824-7.296 1.248-2.08 2.928-3.68 5.04-4.8 2.144-1.12 4.56-1.68 7.248-1.68 2.688 0 5.088.56 7.2 1.68a12.344 12.344 0 0 1 5.04 4.8c1.248 2.08 1.872 4.512 1.872 7.296 0 2.784-.624 5.232-1.872 7.344a12.344 12.344 0 0 1-5.04 4.8c-2.144 1.12-4.56 1.68-7.248 1.68zm0-8.16c1.312 0 2.4-.48 3.264-1.44.896-.992 1.344-2.4 1.344-4.224 0-1.824-.448-3.216-1.344-4.176-.864-.96-1.936-1.44-3.216-1.44-1.28 0-2.352.48-3.216 1.44-.864.96-1.296 2.352-1.296 4.176 0 1.856.416 3.264 1.248 4.224.832.96 1.904 1.44 3.216 1.44zm30.515 8.16c-2.688 0-5.104-.56-7.248-1.68-2.112-1.12-3.776-2.72-4.992-4.8-1.216-2.08-1.824-4.528-1.824-7.344 0-2.784.608-5.216 1.824-7.296 1.248-2.08 2.928-3.68 5.04-4.8 2.144-1.12 4.56-1.68 7.248-1.68 2.688 0 5.088.56 7.2 1.68a12.344 12.344 0 0 1 5.04 4.8c1.248 2.08 1.872 4.512 1.872 7.296 0 2.784-.624 5.232-1.872 7.344a12.344 12.344 0 0 1-5.04 4.8c-2.144 1.12-4.56 1.68-7.248 1.68zm0-8.16c1.312 0 2.4-.48 3.264-1.44.896-.992 1.344-2.4 1.344-4.224 0-1.824-.448-3.216-1.344-4.176-.864-.96-1.936-1.44-3.216-1.44-1.28 0-2.352.48-3.216 1.44-.864.96-1.296 2.352-1.296 4.176 0 1.856.416 3.264 1.248 4.224.832.96 1.904 1.44 3.216 1.44zm30.516 8.16c-2.688 0-5.104-.56-7.248-1.68-2.112-1.12-3.776-2.72-4.992-4.8-1.216-2.08-1.824-4.528-1.824-7.344 0-2.784.608-5.216 1.824-7.296 1.248-2.08 2.928-3.68 5.04-4.8 2.144-1.12 4.56-1.68 7.248-1.68 2.688 0 5.088.56 7.2 1.68a12.344 12.344 0 0 1 5.04 4.8c1.248 2.08 1.872 4.512 1.872 7.296 0 2.784-.624 5.232-1.872 7.344a12.344 12.344 0 0 1-5.04 4.8c-2.144 1.12-4.56 1.68-7.248 1.68zm0-8.16c1.312 0 2.4-.48 3.264-1.44.896-.992 1.344-2.4 1.344-4.224 0-1.824-.448-3.216-1.344-4.176-.864-.96-1.936-1.44-3.216-1.44-1.28 0-2.352.48-3.216 1.44-.864.96-1.296 2.352-1.296 4.176 0 1.856.416 3.264 1.248 4.224.832.96 1.904 1.44 3.216 1.44zm30.515 8.16c-2.688 0-5.104-.56-7.248-1.68-2.112-1.12-3.776-2.72-4.992-4.8-1.216-2.08-1.824-4.528-1.824-7.344 0-2.784.608-5.216 1.824-7.296 1.248-2.08 2.928-3.68 5.04-4.8 2.144-1.12 4.56-1.68 7.248-1.68 2.688 0 5.088.56 7.2 1.68a12.344 12.344 0 0 1 5.04 4.8c1.248 2.08 1.872 4.512 1.872 7.296 0 2.784-.624 5.232-1.872 7.344a12.344 12.344 0 0 1-5.04 4.8c-2.144 1.12-4.56 1.68-7.248 1.68zm0-8.16c1.312 0 2.4-.48 3.264-1.44.896-.992 1.344-2.4 1.344-4.224 0-1.824-.448-3.216-1.344-4.176-.864-.96-1.936-1.44-3.216-1.44-1.28 0-2.352.48-3.216 1.44-.864.96-1.296 2.352-1.296 4.176 0 1.856.416 3.264 1.248 4.224.832.96 1.904 1.44 3.216 1.44zm30.516 8.16c-2.688 0-5.104-.56-7.248-1.68-2.112-1.12-3.776-2.72-4.992-4.8-1.216-2.08-1.824-4.528-1.824-7.344 0-2.784.608-5.216 1.824-7.296 1.248-2.08 2.928-3.68 5.04-4.8 2.144-1.12 4.56-1.68 7.248-1.68 2.688 0 5.088.56 7.2 1.68a12.344 12.344 0 0 1 5.04 4.8c1.248 2.08 1.872 4.512 1.872 7.296 0 2.784-.624 5.232-1.872 7.344a12.344 12.344 0 0 1-5.04 4.8c-2.144 1.12-4.56 1.68-7.248 1.68zm0-8.16c1.312 0 2.4-.48 3.264-1.44.896-.992 1.344-2.4 1.344-4.224 0-1.824-.448-3.216-1.344-4.176-.864-.96-1.936-1.44-3.216-1.44-1.28 0-2.352.48-3.216 1.44-.864.96-1.296 2.352-1.296 4.176 0 1.856.416 3.264 1.248 4.224.832.96 1.904 1.44 3.216 1.44zm30.564-27.744-1.104 22.896h-8.016l-1.104-22.896h10.224zm-5.088 35.952c-1.664 0-3.008-.448-4.032-1.344-.992-.928-1.488-2.096-1.488-3.504s.496-2.576 1.488-3.504c1.024-.928 2.368-1.392 4.032-1.392 1.632 0 2.944.464 3.936 1.392 1.024.928 1.536 2.096 1.536 3.504 0 1.376-.512 2.528-1.536 3.456-.992.928-2.304 1.392-3.936 1.392z" fill="#BA98FD"/>
        <path d="M87.912 81.336c-3.168 0-6.08-.736-8.736-2.208a17.048 17.048 0 0 1-6.336-6.192c-1.536-2.656-2.304-5.648-2.304-8.976 0-3.328.768-6.304 2.304-8.928 1.568-2.656 3.68-4.72 6.336-6.192 2.656-1.472 5.568-2.208 8.736-2.208 3.2 0 6.112.736 8.736 2.208 2.656 1.472 4.752 3.536 6.288 6.192 1.536 2.624 2.304 5.6 2.304 8.928 0 3.328-.768 6.32-2.304 8.976a16.687 16.687 0 0 1-6.288 6.192c-2.656 1.472-5.568 2.208-8.736 2.208zm0-8.736c2.4 0 4.288-.784 5.664-2.352 1.408-1.568 2.112-3.664 2.112-6.288 0-2.688-.704-4.8-2.112-6.336-1.376-1.568-3.264-2.352-5.664-2.352-2.432 0-4.336.784-5.712 2.352-1.376 1.536-2.064 3.648-2.064 6.336 0 2.656.688 4.768 2.064 6.336 1.376 1.536 3.28 2.304 5.712 2.304zm39.269-18.768c3.072 0 5.504 1.04 7.296 3.12 1.824 2.048 2.736 4.832 2.736 8.352V81h-9.408V66.552c0-1.536-.4-2.736-1.2-3.6-.8-.896-1.872-1.344-3.216-1.344-1.408 0-2.512.448-3.312 1.344-.8.864-1.2 2.064-1.2 3.6V81h-9.408V45.48h9.408v12.432c.832-1.216 1.952-2.192 3.36-2.928 1.44-.768 3.088-1.152 4.944-1.152zm27.723 27.504c-2.688 0-5.104-.56-7.248-1.68-2.112-1.12-3.776-2.72-4.992-4.8-1.216-2.08-1.824-4.528-1.824-7.344 0-2.784.608-5.216 1.824-7.296 1.248-2.08 2.928-3.68 5.04-4.8 2.144-1.12 4.56-1.68 7.248-1.68 2.688 0 5.088.56 7.2 1.68a12.344 12.344 0 0 1 5.04 4.8c1.248 2.08 1.872 4.512 1.872 7.296 0 2.784-.624 5.232-1.872 7.344a12.344 12.344 0 0 1-5.04 4.8c-2.144 1.12-4.56 1.68-7.248 1.68zm0-8.16c1.312 0 2.4-.48 3.264-1.44.896-.992 1.344-2.4 1.344-4.224 0-1.824-.448-3.216-1.344-4.176-.864-.96-1.936-1.44-3.216-1.44-1.28 0-2.352.48-3.216 1.44-.864.96-1.296 2.352-1.296 4.176 0 1.856.416 3.264 1.248 4.224.832.96 1.904 1.44 3.216 1.44zm30.515 8.16c-2.688 0-5.104-.56-7.248-1.68-2.112-1.12-3.776-2.72-4.992-4.8-1.216-2.08-1.824-4.528-1.824-7.344 0-2.784.608-5.216 1.824-7.296 1.248-2.08 2.928-3.68 5.04-4.8 2.144-1.12 4.56-1.68 7.248-1.68 2.688 0 5.088.56 7.2 1.68a12.344 12.344 0 0 1 5.04 4.8c1.248 2.08 1.872 4.512 1.872 7.296 0 2.784-.624 5.232-1.872 7.344a12.344 12.344 0 0 1-5.04 4.8c-2.144 1.12-4.56 1.68-7.248 1.68zm0-8.16c1.312 0 2.4-.48 3.264-1.44.896-.992 1.344-2.4 1.344-4.224 0-1.824-.448-3.216-1.344-4.176-.864-.96-1.936-1.44-3.216-1.44-1.28 0-2.352.48-3.216 1.44-.864.96-1.296 2.352-1.296 4.176 0 1.856.416 3.264 1.248 4.224.832.96 1.904 1.44 3.216 1.44zm30.516 8.16c-2.688 0-5.104-.56-7.248-1.68-2.112-1.12-3.776-2.72-4.992-4.8-1.216-2.08-1.824-4.528-1.824-7.344 0-2.784.608-5.216 1.824-7.296 1.248-2.08 2.928-3.68 5.04-4.8 2.144-1.12 4.56-1.68 7.248-1.68 2.688 0 5.088.56 7.2 1.68a12.344 12.344 0 0 1 5.04 4.8c1.248 2.08 1.872 4.512 1.872 7.296 0 2.784-.624 5.232-1.872 7.344a12.344 12.344 0 0 1-5.04 4.8c-2.144 1.12-4.56 1.68-7.248 1.68zm0-8.16c1.312 0 2.4-.48 3.264-1.44.896-.992 1.344-2.4 1.344-4.224 0-1.824-.448-3.216-1.344-4.176-.864-.96-1.936-1.44-3.216-1.44-1.28 0-2.352.48-3.216 1.44-.864.96-1.296 2.352-1.296 4.176 0 1.856.416 3.264 1.248 4.224.832.96 1.904 1.44 3.216 1.44zm30.515 8.16c-2.688 0-5.104-.56-7.248-1.68-2.112-1.12-3.776-2.72-4.992-4.8-1.216-2.08-1.824-4.528-1.824-7.344 0-2.784.608-5.216 1.824-7.296 1.248-2.08 2.928-3.68 5.04-4.8 2.144-1.12 4.56-1.68 7.248-1.68 2.688 0 5.088.56 7.2 1.68a12.344 12.344 0 0 1 5.04 4.8c1.248 2.08 1.872 4.512 1.872 7.296 0 2.784-.624 5.232-1.872 7.344a12.344 12.344 0 0 1-5.04 4.8c-2.144 1.12-4.56 1.68-7.248 1.68zm0-8.16c1.312 0 2.4-.48 3.264-1.44.896-.992 1.344-2.4 1.344-4.224 0-1.824-.448-3.216-1.344-4.176-.864-.96-1.936-1.44-3.216-1.44-1.28 0-2.352.48-3.216 1.44-.864.96-1.296 2.352-1.296 4.176 0 1.856.416 3.264 1.248 4.224.832.96 1.904 1.44 3.216 1.44zm30.516 8.16c-2.688 0-5.104-.56-7.248-1.68-2.112-1.12-3.776-2.72-4.992-4.8-1.216-2.08-1.824-4.528-1.824-7.344 0-2.784.608-5.216 1.824-7.296 1.248-2.08 2.928-3.68 5.04-4.8 2.144-1.12 4.56-1.68 7.248-1.68 2.688 0 5.088.56 7.2 1.68a12.344 12.344 0 0 1 5.04 4.8c1.248 2.08 1.872 4.512 1.872 7.296 0 2.784-.624 5.232-1.872 7.344a12.344 12.344 0 0 1-5.04 4.8c-2.144 1.12-4.56 1.68-7.248 1.68zm0-8.16c1.312 0 2.4-.48 3.264-1.44.896-.992 1.344-2.4 1.344-4.224 0-1.824-.448-3.216-1.344-4.176-.864-.96-1.936-1.44-3.216-1.44-1.28 0-2.352.48-3.216 1.44-.864.96-1.296 2.352-1.296 4.176 0 1.856.416 3.264 1.248 4.224.832.96 1.904 1.44 3.216 1.44zm30.564-27.744-1.104 22.896h-8.016l-1.104-22.896h10.224zm-5.088 35.952c-1.664 0-3.008-.448-4.032-1.344-.992-.928-1.488-2.096-1.488-3.504s.496-2.576 1.488-3.504c1.024-.928 2.368-1.392 4.032-1.392 1.632 0 2.944.464 3.936 1.392 1.024.928 1.536 2.096 1.536 3.504 0 1.376-.512 2.528-1.536 3.456-.992.928-2.304 1.392-3.936 1.392z" fill="#FCFCFD"/>
    </g>
    <defs>
        <clipPath id="79hwkg99ea">
            <path d="M0 8a8 8 0 0 1 8-8h528a8 8 0 0 1 8 8v107H0V8z" fill="#fff"/>
        </clipPath>
    </defs>
</svg>
