<svg width="136" height="142" viewBox="0 0 136 142" fill="none" xmlns="http://www.w3.org/2000/svg">
<g clip-path="url(#clip0_36_6394)">
<path d="M136 142H15.6416V42.3233L75.8207 4.91466L136 42.3233V142Z" fill="#FDE047"/>
<path opacity="0.2" d="M136 142H15.6416V42.3233L75.8207 4.91466L136 42.3233V142Z" fill="black"/>
<path d="M129.227 0.190857H22.4639V134.413H129.227V0.190857Z" fill="white"/>
<path d="M129.227 134.366L22.4635 134.461H22.366V134.366L22.2686 0.19086V0H22.4635L129.227 0.0477151H129.373V0.19086L129.227 134.366ZM129.227 134.366L129.08 0.19086L129.227 0.334005H22.4635L22.6584 0.143145L22.6097 134.366L22.5122 134.27L129.227 134.366Z" fill="#DCDCDC"/>
<path d="M75.7719 130.024L63.4924 130.167L51.2617 130.214L26.7515 130.262H26.5078V130.024L26.5565 102.587L26.6053 88.8931L26.7515 75.1989L26.8489 88.8931L26.9464 102.587V130.024L26.7515 129.785L51.2617 129.88L63.4924 129.928L75.7719 130.024Z" fill="#FDE047"/>
<path d="M136 67.2782V142H15.6416V67.2782C20.8068 70.1411 25.8745 73.1472 30.9909 76.1055C36.1074 79.1116 41.1751 82.0699 46.2428 85.1236C51.8953 88.4637 57.499 91.8992 63.1515 95.3347C63.2002 95.287 63.2976 95.287 63.3464 95.2392C63.2976 95.287 63.2489 95.3347 63.2002 95.3824C67.3908 97.959 71.6301 100.536 75.8207 103.112C80.0114 100.536 84.202 97.9113 88.4413 95.3824C88.3926 95.3347 88.3439 95.287 88.2951 95.2392C88.3439 95.287 88.4413 95.287 88.49 95.3347C94.0938 91.8992 99.7462 88.4637 105.399 85.1236C110.466 82.1176 115.534 79.1116 120.651 76.1055C125.767 73.1472 130.835 70.1411 136 67.2782Z" fill="#FDE047"/>
<path d="M46.9247 60.8367C46.9247 61.0753 47.1196 61.2661 47.3633 61.3139C47.8993 61.3139 48.5815 61.3138 49.3124 61.2661C50.6768 56.5901 52.2361 52.8683 51.895 54.2997C51.359 56.3992 51.0666 59.3575 51.2615 61.2184C52.1386 61.1707 54.1365 61.123 55.1598 61.0753C55.9882 53.0114 57.45 46.9516 57.45 48.7648C57.5962 56.1129 58.2296 58.4509 58.9606 60.9321C68.3164 60.5504 80.5958 59.9778 89.4643 59.3575C90.0978 54.8723 90.5851 50.0531 90.78 50.3871C92.1931 52.7729 92.8266 56.3515 93.1189 59.119C95.9452 58.8804 98.1867 58.6895 99.551 58.4509C99.551 58.4509 99.8921 54.6815 99.8921 53.4886C99.8921 50.3871 99.2587 47.2379 98.0892 44.3273C96.871 41.3212 95.0193 38.7446 93.2651 36.0726L93.2164 36.0249C91.9982 34.164 91.0724 32.3985 90.3414 30.4899C90.3414 30.4899 90.3414 30.4899 90.3414 30.4422C89.8541 29.1062 89.5131 27.6747 89.2207 26.1001C88.3436 20.7083 84.8352 16.2708 79.5725 15.2688C69.0473 7.01412 59.594 11.6425 57.2551 18.8475C57.0114 19.5632 56.8165 20.3266 56.6216 21.2332V21.2809C55.8907 24.4778 55.3547 28.629 54.8187 31.8737C54.8187 31.8737 54.8187 31.8737 54.8187 31.9214C54.5263 33.4483 54.2827 34.7366 53.9903 35.6431C51.9437 41.5121 46.5836 45.1862 46.9247 60.8367Z" fill="#1D1E1E"/>
<path d="M81.8632 16.6048C85.4204 18.084 87.7106 20.4221 88.5877 24.3347C89.075 26.625 89.4648 28.8676 90.5368 30.9671C91.6576 33.1143 93.2656 34.832 94.9711 36.5497C97.6024 39.2695 99.5515 42.037 100.234 45.9019C100.965 49.8145 101.16 54.4906 100.136 58.2601H100.088C100.867 54.4429 100.429 49.2897 99.4053 45.4247C98.2846 41.1781 95.6045 38.6969 92.7783 35.6432C90.5368 33.2097 89.0263 30.4422 88.2953 27.1976C87.8568 25.2413 87.7106 23.2372 86.7848 21.4718C85.664 19.3723 83.6174 18.1317 81.6196 17.0343C81.4247 16.8434 81.6196 16.4617 81.8632 16.6048Z" fill="#171B23"/>
<path d="M48.7767 42.1801C50.9207 38.8878 53.1622 36.0726 54.2342 32.16C55.2088 28.5813 55.5986 24.8595 56.6219 21.2809C56.6219 21.2332 56.7194 21.2332 56.7194 21.2809C55.2575 27.627 55.4037 33.8777 51.8465 39.3649C49.8974 42.371 47.9483 45.1384 46.7788 48.6694C45.5606 52.3434 45.2195 56.1129 45.4632 60.0255C45.4632 60.1687 45.317 60.1687 45.2683 60.0255C44.0988 53.7749 45.4144 47.3333 48.7767 42.1801Z" fill="#1D1E1E"/>
<path d="M78.2565 14.3622C78.5002 15.6505 85.1272 18.0363 89.2203 14.1714C93.216 10.3542 90.6335 3.96036 84.5424 5.34409C80.7417 6.20296 77.7693 11.6425 78.2565 14.3622Z" fill="#1D1E1E"/>
<path d="M90.78 8.01613C89.9028 6.44153 88.4897 5.29637 86.9304 4.67608C85.3711 4.05578 83.5682 4.24664 82.2525 5.24866C80.8882 6.20296 79.9623 7.68213 79.2314 9.25672C78.8903 10.0679 78.6467 10.879 78.4518 11.7379C78.2568 12.5968 78.1594 13.4556 78.2568 14.3622C77.9157 13.5034 77.9157 12.5968 77.9645 11.6902C78.0619 10.7836 78.2081 9.87702 78.5005 9.01815C79.0852 7.30041 80.0598 5.58266 81.6191 4.48522C82.3987 3.91264 83.3733 3.53092 84.3478 3.4832C85.3224 3.43549 86.297 3.62635 87.1741 4.05578C88.9283 4.81922 90.2439 6.29839 90.78 8.01613Z" fill="#1D1E1E"/>
<path d="M70.3147 53.7272C57.8891 67.0874 42.4423 95.0484 45.4634 100.631C48.8744 106.834 66.8063 87.7957 66.2216 86.8891C65.7343 86.1257 71.9228 69.2823 76.4545 56.9718C80.9375 44.6136 73.3846 50.3871 70.3147 53.7272Z" fill="#F0B797"/>
<path d="M55.0625 69.7594L72.897 73.0517C72.897 73.0517 77.3312 60.0733 78.2571 52.8683C78.7443 48.8125 76.4541 48.6694 73.5304 50.8165C63.3463 58.3078 55.0625 69.7594 55.0625 69.7594Z" fill="#9241FF"/>
<path d="M72.8 70.0457C70.0713 69.2823 62.7133 67.5168 57.7431 66.9919C57.6943 66.9919 57.6943 67.0874 57.6943 67.0874C61.7388 68.1371 69.9738 69.7117 72.7513 70.1888C72.8 70.2366 72.8488 70.0457 72.8 70.0457Z" fill="#171B23"/>
<path opacity="0.1" d="M57.4502 70.1888L72.897 73.0517C72.897 73.0517 77.3312 60.0733 78.2571 52.8683C78.5982 50.2917 77.7211 49.2896 76.3567 49.4805L57.4502 70.1888Z" fill="black"/>
<path d="M63.0537 100.058L103.888 93.9032C103.888 93.9032 104.18 67.6599 89.6105 50.6257C85.6635 46.045 78.5492 47.3811 75.187 50.4825C74.3586 51.246 73.1892 52.6297 71.9222 54.2997C68.8524 58.3555 63.8334 68.0417 63.3948 70.666C62.6152 75.0081 66.3672 79.6841 66.3672 79.6841L63.0537 100.058Z" fill="#9241FF"/>
<path d="M62.9078 70.4274C63.3463 68.6143 64.2722 66.9919 65.1493 65.4173C66.0264 63.7473 67.0009 62.0773 67.9755 60.4073C68.0242 60.3595 68.0242 60.3118 68.0729 60.2164C68.2191 59.6915 68.4628 59.1667 68.6577 58.6418C68.9013 57.9738 69.1937 57.3535 69.4373 56.6855H69.4861C69.2911 57.3535 69.0962 58.0692 68.8526 58.7372C68.8039 58.9281 68.7064 59.0712 68.6577 59.2621C68.9988 58.6895 69.2911 58.1647 69.6322 57.6398C70.217 56.7332 70.8017 55.8266 71.3864 54.8723H71.4352C70.5093 56.4946 69.6322 58.1169 68.7064 59.7392C67.7806 61.3616 66.9035 62.9839 66.0264 64.6539C65.5878 65.4651 65.198 66.3239 64.8082 67.1351C64.4183 67.9462 64.0285 68.7097 63.7849 69.5686C63.2489 71.1909 63.2489 72.9086 63.7361 74.5309C64.2722 76.3441 65.2954 78.0141 66.2213 79.6841C66.27 79.7319 66.1725 79.8273 66.1238 79.7796C64.0772 77.1552 62.0794 73.9583 62.9078 70.4274Z" fill="#0C0C0C"/>
<path d="M45.4634 100.583C48.3871 104.735 56.1348 105.355 75.5286 108.933C78.2086 109.411 86.6873 90.9449 83.8611 90.2292C80.3039 89.3703 66.2215 86.8891 65.1982 86.7937C56.3297 86.412 43.5143 97.7681 45.4634 100.583Z" fill="#F0B797"/>
<path d="M79.9626 89.418C79.9626 89.418 88.1489 90.5632 92.2908 92.5195C97.8458 95.1438 101.549 99.7722 103.011 101.776C106.032 106.023 110.466 118.381 107.25 120.337C104.327 122.103 100.38 109.22 100.38 109.22C100.38 109.22 106.519 121.673 102.572 123.105C98.6741 124.536 94.9221 109.315 94.9221 109.315C94.9221 109.315 100.916 122.246 96.6763 123.105C93.4602 123.725 89.3184 110.126 89.3184 110.126C89.3184 110.126 94.3861 121.292 91.1213 122.103C87.4667 122.962 82.8863 110.651 82.8863 110.651C74.1639 111.224 69.8271 107.836 67.0009 105.069C66.27 104.401 79.9626 89.418 79.9626 89.418Z" fill="#F0B797"/>
<path d="M98.5282 104.735C99.3079 106.166 100.088 107.645 100.721 109.124C101.354 110.603 101.939 112.13 102.475 113.705C103.693 117.522 103.888 120.099 103.888 119.956C103.206 116.186 100.965 110.794 100.331 109.267C99.6977 107.788 99.113 106.214 98.4795 104.735C98.4795 104.735 98.5282 104.687 98.5282 104.735Z" fill="#0C0C0C"/>
<path d="M93.217 107.025C94.1428 108.886 95.0686 110.747 95.897 112.655C96.7254 114.564 97.3589 116.472 98.041 118.429C98.0898 118.572 97.9923 118.572 97.9436 118.429C97.1639 116.472 96.3356 114.755 95.5559 112.846C94.7275 110.89 93.9966 108.933 93.217 107.025C93.217 106.977 93.1682 107.025 93.217 107.025Z" fill="#0C0C0C"/>
<path d="M88.2953 108.122C89.8059 110.937 90.8292 113.991 91.8037 117.045C91.8525 117.188 91.7063 117.14 91.6575 116.997C90.5368 113.991 89.7084 111.653 88.1979 108.17C88.1491 108.122 88.2466 108.075 88.2953 108.122Z" fill="#0C0C0C"/>
<path d="M56.6217 89.084C57.8887 88.2251 61.5433 86.2688 65.1492 86.8414C65.1979 86.8414 65.1979 86.8891 65.1492 86.8891C62.1767 86.8891 57.9861 88.416 56.6705 89.1317C56.6217 89.1317 56.573 89.084 56.6217 89.084Z" fill="#0C0C0C"/>
<path d="M62.9571 35.5477C61.544 35.7386 60.4233 36.6929 60.0334 38.0766C59.9847 38.3152 59.5949 38.2198 59.6923 37.9812C60.1309 36.502 61.3491 35.4523 62.9084 35.2137C63.1033 35.166 63.2008 35.5 62.9571 35.5477Z" fill="white"/>
<path d="M79.5729 89.2271C81.9605 90.42 84.3482 91.5652 86.8333 92.6149C89.2697 93.6169 91.7549 94.5712 94.2887 95.3824C95.7019 95.8595 97.115 96.289 98.5281 96.6707C98.5768 96.6707 98.5281 96.7184 98.5281 96.7184C95.9455 96.1935 93.3629 95.5255 90.829 94.6667C89.5621 94.2372 88.3439 93.7601 87.1257 93.2352C85.9075 92.7103 84.6893 92.1855 83.5198 91.5652C82.2042 90.8495 80.8398 90.1337 79.5729 89.3226C79.4754 89.2749 79.5241 89.2271 79.5729 89.2271Z" fill="#0C0C0C"/>
<path d="M53.3084 77.8233C56.1834 78.6344 60.7151 78.3958 60.7638 78.4435C61.6409 79.207 65.1494 81.5927 66.0752 82.1176C66.1239 82.1176 66.0752 82.213 66.0265 82.1653C64.0773 81.2587 61.6409 79.875 60.6177 78.873C56.5732 79.0161 54.5754 78.3004 53.3084 77.9187C53.211 77.9187 53.211 77.8233 53.3084 77.8233Z" fill="#0C0C0C"/>
<path d="M93.8014 56.3515C99.6975 66.2762 109.687 87.6525 105.886 95.3824C102.231 102.874 65.3442 82.3562 60.6663 78.6344C58.6197 77.0121 68.1704 57.7829 70.4607 59.3098C73.5793 61.3616 88.6362 73.9583 88.9773 74.006C89.6595 74.1492 87.5642 67.0396 86.1511 58.2124C84.1045 45.377 89.5621 49.2419 93.8014 56.3515Z" fill="#F0B797"/>
<path d="M106.081 72.4792L87.9546 73.0995C87.9546 73.0995 85.372 59.5961 85.4695 52.3434C85.5669 48.2876 87.8572 48.4308 90.4398 51.0074C99.4544 59.9301 106.081 72.4792 106.081 72.4792Z" fill="#9241FF"/>
<path d="M88.4906 70.1411C91.2681 69.8071 98.821 69.1391 103.84 69.33C103.889 69.33 103.889 69.4254 103.84 69.4731C99.6981 69.9503 91.3168 70.2366 88.5393 70.332C88.4419 70.332 88.3932 70.1411 88.4906 70.1411Z" fill="#0C0C0C"/>
<path d="M85.4688 59.2621C85.6637 60.0733 85.8586 60.8844 86.0535 61.6956C86.0535 61.6001 86.0535 61.5047 86.0048 61.4093C85.9073 60.2641 85.7611 59.1667 85.7124 58.0215C85.7124 57.9738 85.7611 57.9738 85.7611 58.0215C86.2971 61.9819 87.8077 71.9543 87.9052 73.0517C88.0026 73.0517 88.831 73.0517 89.0259 73.0517C89.0746 73.0517 89.0746 73.0995 89.0259 73.0995C88.9284 73.0995 87.6615 73.2426 87.6615 73.2426C87.1255 71.334 86.2971 64.0336 86.1022 62.4113C85.8586 61.4093 85.6149 60.3595 85.4688 59.2621Z" fill="#0C0C0C"/>
<path d="M85.4686 49.2897C85.5173 50.244 80.6445 57.9261 76.4052 58.9758C75.0408 59.3098 75.0895 51.4845 75.0895 51.4845L74.7972 50.9597L70.6553 43.9456L77.9158 35.5477L78.9878 34.4026C78.9878 34.4026 79.9623 36.4066 81.1805 38.8878C81.2293 38.9832 81.278 39.1263 81.3754 39.2218C81.4242 39.3649 81.5216 39.5081 81.5704 39.6035C81.7653 39.9852 81.9602 40.3669 82.1064 40.7487C82.2526 41.035 82.3987 41.3212 82.4962 41.6075C82.6424 41.8938 82.7886 42.2278 82.9347 42.5141C84.2991 45.6633 85.4199 48.9079 85.4686 49.2897Z" fill="#EEB595"/>
<path d="M81.2293 38.8878C80.9369 45.5679 76.795 49.4328 74.7972 50.9597L70.6553 43.9456L77.9157 35.5477L78.9878 34.4026C78.9878 34.4026 80.0111 36.4066 81.2293 38.8878Z" fill="#C1927D"/>
<path d="M54.2826 32.828C54.7211 48.4308 64.2718 49.9099 67.6341 49.8145C70.7039 49.7191 81.2292 49.0034 82.3987 33.4483C83.5682 17.8931 76.064 13.1694 68.9985 13.0262C61.9329 12.8831 53.7953 17.2729 54.2826 32.828Z" fill="#EEB595"/>
<path d="M63.0541 16.5094C63.0541 16.5094 62.6643 18.9906 63.7363 20.6606C65.8803 24.0484 70.1684 22.6169 71.7764 23.9052C73.3357 25.0981 73.1408 27.9133 74.5539 29.1062C76.503 30.7762 78.842 29.7742 79.2805 31.0148C79.7191 32.2077 80.986 36.0726 82.6428 36.4066C84.2995 36.7406 88.7338 9.68616 67.8782 12.7876C67.8782 12.7876 64.9545 12.0719 60.6664 14.6485C55.7449 17.6546 54.6729 25.7184 54.6729 25.7184C54.6729 25.7184 54.8678 25.7184 55.55 25.0027C56.4758 24.0007 56.7682 23.1418 57.4504 22.5215C58.5224 21.5195 59.2046 21.7581 60.2766 20.756C61.9821 19.1337 63.0541 16.5094 63.0541 16.5094Z" fill="#1D1E1E"/>
<path d="M63.2488 15.3165C63.0539 16.3663 62.9565 17.4637 63.0052 18.5612C63.0539 19.6109 63.2001 20.7083 63.7848 21.5672C64.3696 22.4261 65.3929 22.9032 66.3674 23.1418C67.3907 23.3804 68.5114 23.3804 69.6322 23.6667C70.1682 23.8575 70.7529 24.0961 71.1428 24.5732C71.5326 25.0504 71.7762 25.5753 71.9224 26.1001C72.2635 27.1499 72.6046 28.1519 73.3843 28.8199C74.1639 29.4879 75.2359 29.8219 76.3079 29.6788C77.38 29.5833 78.5007 29.1539 79.5727 29.4879C78.452 29.2493 77.4287 29.7265 76.3567 29.9173C75.2359 30.1559 74.0177 29.8219 73.1406 29.1062C72.2148 28.3905 71.825 27.1976 71.4839 26.2433C71.2889 25.7184 71.094 25.2413 70.7529 24.9073C70.4118 24.5732 69.9733 24.3347 69.4373 24.1915C68.414 23.9052 67.2932 23.9052 66.2212 23.6189C65.6852 23.4758 65.1492 23.2849 64.6619 22.9509C64.1747 22.6646 63.6874 22.2829 63.395 21.7581C62.8103 20.756 62.6641 19.6109 62.7128 18.5134C62.8103 17.4637 62.9565 16.3663 63.2488 15.3165Z" fill="#171B23"/>
<path d="M62.9564 16.3185C62.8589 17.3206 62.6153 18.3226 62.2742 19.2769C61.9331 20.2312 61.2996 21.1378 60.4225 21.7581C59.984 22.0921 59.448 22.2829 59.0581 22.4738C58.6683 22.6646 58.2298 22.9987 58.0349 23.3327C57.7912 23.7621 57.5963 24.2392 57.2552 24.6687C56.9141 25.0504 56.4756 25.3844 55.9883 25.5753C56.3781 25.289 56.7679 24.955 57.0116 24.5255C57.3039 24.1438 57.4014 23.6667 57.645 23.1895C57.8887 22.6646 58.376 22.3306 58.8145 22.0921C59.3018 21.8535 59.7403 21.6626 60.1302 21.3763C60.9098 20.8038 61.4946 19.9926 61.8844 19.1337C62.3229 18.2271 62.664 17.2728 62.9564 16.3185Z" fill="#171B23"/>
<path d="M79.8654 33.6868C79.8654 33.6868 82.7404 28.4382 85.0793 29.3925C87.4183 30.3468 85.7128 37.6472 83.1789 38.8878C80.6938 40.1284 79.4756 37.8858 79.4756 37.8858L79.8654 33.6868Z" fill="#EEB595"/>
<path d="M84.5436 31.4919C84.5924 31.4919 84.5924 31.5397 84.5436 31.5397C82.7894 32.494 82.0585 34.2594 81.5712 36.0726C82.0585 35.3569 82.7407 34.8797 83.7152 35.4046C83.764 35.4523 83.7152 35.5 83.6665 35.5C82.8869 35.4046 82.3509 35.5954 81.961 36.2634C81.6687 36.7406 81.4738 37.2655 81.2788 37.7903C81.2301 37.9812 80.889 37.8858 80.9378 37.6949V37.6472C80.5967 35.4523 82.0585 32.0168 84.5436 31.4919Z" fill="#171B23"/>
<path d="M60.666 38.172C60.666 38.172 63.1024 37.6472 67.9752 36.5974C67.9752 36.5974 68.5112 41.703 64.9541 42.0847C61.8842 42.4187 60.666 38.172 60.666 38.172Z" fill="white"/>
<path d="M67.5372 29.9651C67.6834 30.6331 67.3423 31.2534 66.855 31.3488C66.3677 31.4442 65.8317 30.9671 65.6855 30.2991C65.5393 29.6311 65.8804 29.0108 66.3677 28.9153C66.9037 28.8199 67.391 29.297 67.5372 29.9651Z" fill="#0E0E0E"/>
<path d="M59.3507 31.9214C59.4968 32.5894 59.1557 33.2097 58.6685 33.3051C58.1812 33.4005 57.6452 32.9234 57.499 32.2554C57.3528 31.5874 57.6939 30.9671 58.1812 30.8716C58.6685 30.8239 59.2045 31.2534 59.3507 31.9214Z" fill="#0E0E0E"/>
<path d="M58.8634 28.2473C57.5965 27.7702 56.1834 28.3905 55.8423 29.7265C55.5986 30.5854 54.2342 30.3468 54.4291 29.5356C55.0626 27.3407 57.2554 26.1956 59.3994 27.0067C60.2765 27.293 59.7405 28.5813 58.8634 28.2473Z" fill="#0E0E0E"/>
<path d="M68.9503 25.4798C67.1961 24.3347 65.0521 24.3824 63.4441 25.7661C62.7619 26.3387 63.639 27.4362 64.3212 26.8636C65.4419 25.9093 66.855 25.7661 68.1219 26.5773C68.8529 27.0544 69.6812 25.957 68.9503 25.4798Z" fill="#0E0E0E"/>
<path d="M63.3955 33.0188C62.5184 29.8696 64.4188 26.625 67.6349 25.7661C70.8509 24.9073 74.1644 26.7681 75.0415 29.9173C75.9186 33.0665 74.0182 36.3112 70.8022 37.17C67.5861 38.0289 64.2726 36.168 63.3955 33.0188ZM64.0777 32.8757C64.8574 35.6431 67.781 37.3132 70.656 36.5497C73.4822 35.7863 75.1877 32.9234 74.4081 30.1082C73.6284 27.3407 70.7047 25.6707 67.8298 26.4341C64.9548 27.1976 63.2981 30.0605 64.0777 32.8757Z" fill="white"/>
<path d="M49.3125 36.6929C48.4354 33.5437 50.3358 30.2991 53.5519 29.4402C56.7679 28.5813 60.0814 30.4422 60.9585 33.5914C61.8356 36.7406 59.9352 39.9852 56.7192 40.8441C53.5031 41.703 50.1896 39.8421 49.3125 36.6929ZM49.946 36.5497C50.7256 39.3172 53.6493 40.9872 56.5243 40.2238C59.3505 39.4604 61.056 36.5975 60.2763 33.7823C59.4967 31.0148 56.573 29.3448 53.698 30.1082C50.8718 30.8716 49.1663 33.7345 49.946 36.5497Z" fill="white"/>
<path d="M50.9903 62.8373L46.2637 62.1693L48.1153 48.0934L54.1089 48.9522L50.9903 62.8373Z" fill="#FDE047"/>
<path d="M54.1089 48.9522L52.8907 54.2486L50.9903 62.8373L46.2637 62.1693L48.1153 48.0934L54.1089 48.9522Z" fill="#8543ED"/>
<path d="M54.353 51.0994L46.9463 50.0497L47.6772 44.2762L55.1326 45.2782L54.353 51.0994Z" fill="#9241FF"/>
<path d="M60.3952 43.8467L54.5479 43.6559L55.7661 34.256L61.4672 35.6397L60.3952 43.8467Z" fill="#9241FF"/>
<path d="M53.0368 32.0134L51.2339 45.8508L41.3421 45.7076L17.709 51.0994L22.0458 17.7943L43.4861 29.4368L53.0368 32.0134Z" fill="#9241FF"/>
<path d="M24.6377 35.0235C25.8385 25.7955 24.453 18.0205 21.5431 17.6574C18.6331 17.2943 15.3008 24.4807 14.1 33.7087C12.8992 42.9366 14.2847 50.7117 17.1946 51.0747C20.1046 51.4378 23.4369 44.2514 24.6377 35.0235Z" fill="#6943C4"/>
<path d="M24.5803 34.8763C24.4341 35.9738 24.2392 37.0235 24.0443 38.0255C23.4108 38.4072 22.6799 38.5981 21.9003 38.5026C20.0973 38.2641 18.8791 36.5463 19.1228 34.7332L19.3177 33.1586C19.5613 31.3454 21.2181 30.0571 22.9723 30.2957C23.7519 30.3911 24.3854 30.7728 24.8727 31.2977C24.8727 32.4428 24.7265 33.6357 24.5803 34.8763Z" fill="#9241FF"/>
<path d="M56.3507 47.3299L44.9971 46.9482L47.3847 28.7688L58.446 31.4885L56.3507 47.3299Z" fill="#8543ED"/>
<path d="M11.4238 17.9375C12.106 18.4623 12.7882 18.9872 13.4217 19.5598C14.1039 20.1323 14.7373 20.7049 15.3708 21.2775C16.0043 21.8501 16.6377 22.4227 17.2712 23.043L18.197 23.9496C18.4894 24.2836 18.7818 24.5698 19.0741 24.9039C18.733 24.6653 18.3919 24.379 18.0508 24.0927L17.0763 23.2815C16.3941 22.709 15.7606 22.1364 15.1272 21.5638C14.4937 20.9912 13.8602 20.4186 13.2268 19.7983C12.642 19.178 12.0086 18.5577 11.4238 17.9375Z" fill="#5B2BA5"/>
<path d="M17.1732 43.2741C16.2473 43.5604 15.3215 43.799 14.3957 44.0376C13.4698 44.2762 12.544 44.5147 11.5694 44.7056C10.6436 44.8965 9.66905 45.0873 8.74322 45.2782L7.33011 45.5168C6.84283 45.5645 6.40427 45.6599 5.91699 45.7553C6.35554 45.6122 6.84283 45.469 7.28138 45.3259L8.69449 44.9442C9.62032 44.7056 10.5462 44.467 11.5207 44.2762C12.4466 44.0853 13.4211 43.8944 14.3469 43.7036C15.2728 43.5604 16.1986 43.3696 17.1732 43.2741Z" fill="#5B2BA5"/>
<path d="M-0.612305 40.5544C0.800809 40.3635 2.21392 40.2681 3.57831 40.125C4.99142 39.9818 6.40454 39.8864 7.81765 39.7909C9.23076 39.6955 10.6439 39.6001 12.057 39.5524L14.1523 39.4569C14.8345 39.4569 15.5654 39.4092 16.2476 39.4092C15.5654 39.5047 14.8345 39.5524 14.1523 39.6478L12.057 39.8387C10.6439 39.9818 9.23076 40.0772 7.81765 40.1727C6.40454 40.2681 4.99142 40.3635 3.57831 40.4112C2.21392 40.5067 0.800809 40.5544 -0.612305 40.5544Z" fill="#5B2BA5"/>
<path d="M3.57812 18.5578C4.79633 19.3212 6.01453 20.0846 7.23273 20.8481C8.45093 21.6115 9.6204 22.4227 10.8386 23.2338C12.0081 24.045 13.2263 24.8561 14.3958 25.715L16.15 26.9556C16.7347 27.385 17.3194 27.8145 17.9042 28.2439C17.2707 27.8622 16.686 27.4805 16.0525 27.0987L14.2496 25.9059C13.0314 25.1424 11.8619 24.3313 10.6437 23.5201C9.47422 22.709 8.25602 21.8978 7.08655 21.0389C5.86834 20.2755 4.69887 19.4166 3.57812 18.5578Z" fill="#5B2BA5"/>
<path d="M16.5887 33.8743C14.9319 33.7311 13.3239 33.4926 11.6671 33.3017C10.0104 33.1108 8.40236 32.8245 6.74561 32.6337C5.13759 32.3951 3.48083 32.1088 1.87281 31.8702L-0.563597 31.4408C-1.39197 31.2977 -2.17162 31.1545 -3 30.9637C-2.17162 31.0591 -1.34325 31.1545 -0.514869 31.25L1.92153 31.584C3.57829 31.7748 5.18631 32.0611 6.84307 32.252C8.45109 32.4905 10.1078 32.7768 11.7159 33.0154C13.3726 33.254 14.9807 33.5403 16.5887 33.8743Z" fill="#5B2BA5"/>
<path d="M45.8048 51.4845C44.4404 53.1546 45.6099 55.0632 45.6099 55.0632C45.6099 55.0632 43.9531 55.5403 43.1735 57.0195C42.2476 58.6895 44.3917 60.9321 44.3917 60.9321C44.3917 60.9321 42.8324 61.791 42.1015 63.4133C41.3705 65.0833 43.2222 67.6599 43.2222 67.6599C43.2222 67.6599 42.1989 69.2823 42.54 71.1431C43.1735 74.3401 47.7052 76.1055 50.5801 77.1552C54.8682 78.7775 62.616 78.7298 64.3702 79.0161L71.5819 60.1687C71.5819 60.1687 60.1308 51.3414 56.5737 50.5302C53.5525 49.8145 47.3641 49.5759 45.8048 51.4845Z" fill="#F0B797"/>
<path d="M45.8532 54.8246C49.2154 54.7769 52.3828 55.7789 55.6475 56.59C55.6963 56.59 55.6963 56.7332 55.5988 56.6855C52.3828 55.8743 49.0692 55.6835 45.8045 54.9677C45.7557 54.9677 45.7557 54.8246 45.8532 54.8246Z" fill="#0C0C0C"/>
<path d="M44.4895 60.6935C45.2692 60.6935 46.0001 60.9798 46.731 61.2184C47.5107 61.457 48.2903 61.6956 49.07 61.9818C50.6293 62.5067 52.1398 63.0793 53.6504 63.6519C53.6991 63.6996 53.6991 63.795 53.6017 63.7473C52.0424 63.2224 50.5318 62.7453 48.9725 62.2681C48.1929 62.0296 47.4132 61.8387 46.6336 61.6001C45.9027 61.4093 45.123 61.2661 44.4408 60.8844C44.3434 60.8367 44.3921 60.6935 44.4895 60.6935Z" fill="#0C0C0C"/>
<path d="M43.2709 67.6599C43.9531 67.6599 44.6353 67.9939 45.2688 68.2325C45.951 68.4711 46.6819 68.7574 47.3641 68.996C48.7772 69.4731 50.1903 69.998 51.6034 70.4274C51.6521 70.4274 51.6521 70.5706 51.5547 70.5228C50.0928 70.0934 48.6797 69.664 47.2179 69.2345C46.5357 68.996 45.8048 68.8051 45.1226 68.5665C44.5378 68.3757 43.7582 68.1848 43.2709 67.8031C43.2222 67.7077 43.2222 67.6599 43.2709 67.6599Z" fill="#0C0C0C"/>
</g>
<defs>
<clipPath id="clip0_36_6394">
<rect width="136" height="142" fill="white"/>
</clipPath>
</defs>
</svg>
