<svg width="24" height="24" viewBox="0 0 24 24" fill="none" xmlns="http://www.w3.org/2000/svg">
<path d="M23.706 2.18952C22.871 2.55952 21.974 2.80952 21.031 2.92252C22.004 2.34031 22.7319 1.42398 23.079 0.344518C22.1648 0.887508 21.1643 1.26971 20.121 1.47452C19.4194 0.725384 18.4901 0.228845 17.4773 0.0619924C16.4646 -0.10486 15.4251 0.0673099 14.5202 0.551771C13.6154 1.03623 12.8958 1.80588 12.4732 2.74122C12.0505 3.67656 11.9485 4.72527 12.183 5.72452C10.3307 5.63151 8.51863 5.15007 6.86442 4.31142C5.21022 3.47278 3.75084 2.29568 2.581 0.856519C2.181 1.54652 1.951 2.34652 1.951 3.19852C1.95055 3.96551 2.13943 4.72076 2.50088 5.39725C2.86232 6.07374 3.38516 6.65056 4.023 7.07652C3.28328 7.05298 2.55987 6.8531 1.913 6.49352V6.55352C1.91293 7.62926 2.28503 8.6719 2.96618 9.50451C3.64733 10.3371 4.59557 10.9084 5.65 11.1215C4.96378 11.3072 4.24434 11.3346 3.546 11.2015C3.8435 12.1271 4.423 12.9365 5.20337 13.5164C5.98374 14.0963 6.92592 14.4177 7.898 14.4355C6.24783 15.7309 4.20989 16.4336 2.112 16.4305C1.74038 16.4306 1.36908 16.4089 1 16.3655C3.12948 17.7347 5.60834 18.4613 8.14 18.4585C16.71 18.4585 21.395 11.3605 21.395 5.20452C21.395 5.00452 21.39 4.80252 21.381 4.60252C22.2923 3.94349 23.0789 3.12741 23.704 2.19252L23.706 2.18952Z" fill="#171B23"/>
</svg>
