<svg width="44" height="109" viewBox="0 0 44 109" fill="none" xmlns="http://www.w3.org/2000/svg">
    <g clip-path="url(#a3nc32mzya)">
        <path d="M27.54 26.078c0 .111-.08.206-.175.206-.228 0-.497-.016-.793-.016-.551-2.121-1.183-3.816-1.035-3.166.215.95.336 2.295.255 3.135-.35-.016-1.157-.048-1.573-.064-.337-3.657-.915-6.412-.928-5.589-.054 3.34-.323 4.402-.619 5.526-3.792-.158-8.754-.443-12.331-.728-.256-2.027-.457-4.228-.525-4.085-.578 1.076-.833 2.707-.94 3.958a33.786 33.786 0 0 1-2.61-.3s-.134-1.695-.134-2.25c0-1.408.255-2.834.726-4.164.484-1.361 1.237-2.533 1.963-3.736 0-.016.014-.016.014-.032v-.016c.497-.84.874-1.647 1.156-2.502 0 0 0-.016.014-.016.201-.617.35-1.25.443-1.963.364-2.438 1.775-4.45 3.914-4.908 4.263-3.737 8.068-1.631 9.023 1.63.094.317.175.681.255 1.077v.016c.296 1.457.511 3.341.74 4.798v.031c.108.697.215 1.283.336 1.695.794 2.676 2.945 4.354 2.824 11.463z" fill="#1D1E1E"/>
        <path d="M13.394 5.985c-1.439.665-2.367 1.742-2.716 3.515-.202 1.03-.35 2.059-.78 3.009-.458.982-1.117 1.757-1.789 2.55-1.076 1.234-1.842 2.5-2.138 4.243-.296 1.773-.377 3.895.04 5.62 0 .016.014 0 .014 0-.31-1.741-.135-4.085.269-5.826.443-1.916 1.546-3.056 2.676-4.434a8.417 8.417 0 0 0 1.802-3.832c.175-.87.228-1.805.618-2.612.457-.966 1.278-1.52 2.085-2.011.107-.095.027-.27-.081-.222z" fill="#171B23"/>
        <path d="M26.787 17.607c-.86-1.488-1.775-2.77-2.205-4.56-.39-1.63-.565-3.325-.955-4.94 0-.032-.04-.016-.04.016.592 2.882.524 5.716 1.977 8.217.78 1.362 1.587 2.629 2.044 4.212.484 1.663.618 3.373.524 5.146 0 .064.067.064.08 0 .471-2.85-.08-5.763-1.425-8.09zM14.86 4.972c-.095.586-2.784 1.662-4.425-.095C8.808 3.15 9.871.237 12.318.855c1.533.412 2.743 2.882 2.542 4.117z" fill="#1D1E1E"/>
        <path d="M9.804 2.09a3.233 3.233 0 0 1 1.56-1.52c.632-.285 1.358-.206 1.882.253.552.428.942 1.109 1.21 1.821.135.364.243.744.31 1.124.08.38.12.792.08 1.188.148-.38.135-.808.121-1.22a5.372 5.372 0 0 0-.215-1.218c-.228-.792-.632-1.552-1.277-2.075-.323-.253-.7-.427-1.103-.459a2.046 2.046 0 0 0-1.143.254A3.075 3.075 0 0 0 9.804 2.09z" fill="#1D1E1E"/>
        <path d="M36.51 108.747c-.673.205-19.7-.032-20.414-.475-.282-.159-.403-2.787-.457-5.97v-.095a97.501 97.501 0 0 1-.027-2.011v-.285l12.399.032-.014.364-.08 1.916-.014.19s7.248 3.167 7.975 3.737c.74.57 1.304 2.391.632 2.597z" fill="#ECECEC"/>
        <path d="M36.51 108.747c-.35.11-5.513.095-10.57 0-1.022-.016-2.03-.048-2.985-.064-3.604-.095-6.59-.237-6.858-.411-.27-.159-.404-2.724-.457-5.843v-.222h.013l12.264.016v.206s7.248 3.167 7.974 3.737c.727.554 1.291 2.375.62 2.581z" fill="#8143FD"/>
        <path d="M25.94 108.731c-1.022-.016-2.03-.048-2.985-.064-3.604-.095-6.59-.237-6.858-.411-.27-.159-.404-2.724-.457-5.843v-.222h.013c1.681 1.125 7.598 4.846 10.287 6.54z" fill="#6935D0"/>
        <path d="M28.75 102.255H15.049s1.708-34.581.632-38.587c-.336-1.251-.7-2.597-1.076-3.99-1.022-3.769-2.151-7.886-3.133-11.48-1.48-5.367-2.622-9.548-2.622-9.548h11.618s1.358 4.07 3.066 9.342c2.77 8.614 5.218 54.263 5.218 54.263z" fill="#1D1E1E"/>
        <path d="M19.136 38.666c-.807 5.906-2.34 16.974-3.47 25.002-2.622-9.738-6.831-25.002-6.831-25.002h10.3z" fill="#000"/>
        <path d="M21.987 108.921c-.673.206-19.7.031-20.427-.412-.282-.158-.417-2.787-.484-5.969v-.095a97.22 97.22 0 0 1-.027-2.011v-.285c-.04-4.592.31-9.342.31-9.342l12.438.08-.35 9.262-.013.364-.067 1.916v.19s7.262 3.151 7.988 3.721c.74.554 1.304 2.375.632 2.581z" fill="#E7B89B"/>
        <path d="M21.986 108.921c-.672.206-19.7.031-20.426-.412-.283-.158-.417-2.787-.484-5.969v-.095a97.22 97.22 0 0 1-.027-2.011v-.285l12.398-.016-.013.364-.067 1.916v.19s7.261 3.151 7.988 3.721c.74.57 1.304 2.391.631 2.597z" fill="#ECECEC"/>
        <path d="M21.987 108.921c-.672.206-19.7.031-20.427-.412-.282-.158-.417-2.787-.484-5.969v-.095l12.278-.016v.19s7.261 3.151 7.988 3.721c.753.554 1.317 2.375.645 2.581z" fill="#8143FD"/>
        <path d="M20.077 38.666s-.269 5.257-1.546 9.421c-.108.349-.216.681-.337 1.014 0 0-1.33.459-3.348 1.63 0 0-.135 4.228-.269 8.947-.148 5.272-.887 42.767-.887 42.767L0 102.508s3.12-45.3 3.658-54.167c.322-5.463.591-9.675.591-9.675h15.828z" fill="#1D1E1E"/>
        <path d="M37.37 20.252c-.806 1.425-3.617 3.673-4.518 3.974-.887.285-4.962-4.275-4.787-5.21.188-.934 3.295-5.494 4.855-6.111 1.573-.634 5.284 5.874 4.45 7.347z" fill="#E7B89B"/>
        <path d="M28.468 18.146s.31-2.09-.067-3.927c-.31-1.536-.955-3.784-.12-3.974 1.707-.396 3.307 5.209 3.307 5.209s.296 2.58-1.358 3.135c-1.049.332-1.762-.443-1.762-.443z" fill="#E7B89B"/>
        <path d="M30.714 14.33c.027.855 1.05.332 1.05.332s-1.278 1.108-.902 1.98c.363.838 1.574.174 1.654.126-.067.063-1.21 1.108-.74 1.948.498.87 1.588-.016 1.655-.064-.04.08-.632 1.077-.121 1.631.874.966 2.447-1.567 3.483-1.773 0 0 .551 1.694.578 1.741 0 0 1.546-2.375 1.183-3.736-.188-.713-.9-.697-.9-.697s.577-.713.228-1.393c-.175-.349-.901-.365-.901-.365s.444-.585.094-1.171c-.282-.46-.955-.412-.955-.412s.162-.76-.282-1.14c-.901-.776-5.177 1.156-5.124 2.993z" fill="#E7B89B"/>
        <path d="M35.998 12.477c.014 0 .014-.032 0-.016-1.56.301-3.187 1.093-4.29 2.233-.04.031.014.11.054.079 1.359-.982 2.65-1.726 4.236-2.296zM36.994 14.045c.013 0 .013-.032-.014-.032-1.613.317-3.415 1.25-4.518 2.723-.04.048-.027.127.027.08.807-.919 3.066-2.265 4.505-2.771zM33.39 18.763c1.116-1.362 2.568-2.248 4.182-2.93.026-.015 0-.03-.014-.03-.887.126-1.869.664-2.609 1.155-.699.475-1.237 1.03-1.613 1.773-.014.032.027.064.053.032z" fill="#1C1C1C"/>
        <path d="M31.736 14.662c-.04.048.067.063.027.111-.175.19-1.13 1.457-.793 1.916.269.364.954.253 1.197.11l.618-.363-.457.554a2.83 2.83 0 0 0-.484.807c-.108.285-.135.602 0 .84.134.253.39.395.672.332.283-.048.578-.222.807-.428l.645-.554-.43.729a2.14 2.14 0 0 0-.269.633c-.054.222-.08.46-.013.65s.242.348.444.363c.201.016.43-.079.645-.19.417-.237.793-.554 1.183-.87.189-.159.39-.317.592-.46.202-.142.417-.285.659-.332-.242.079-.43.237-.619.396-.188.158-.363.332-.55.49-.364.333-.727.665-1.17.95-.216.127-.458.254-.767.254-.31-.016-.565-.238-.673-.507-.107-.27-.067-.554-.013-.807.067-.254.161-.491.296-.713l.215.174c-.27.238-.565.428-.941.507a.915.915 0 0 1-.579-.08.926.926 0 0 1-.403-.41c-.188-.35-.121-.745 0-1.078.134-.332.31-.617.538-.886l.161.19c-.323.174-1.076.38-1.56-.143-.51-.744.767-1.979 1.022-2.185z" fill="#1C1C1C"/>
        <path d="M31.763 14.662c-.188.048-.363.08-.538.08a.4.4 0 0 1-.363-.207c-.067-.11-.067-.285-.04-.459.027-.174.067-.348.107-.538a1.35 1.35 0 0 0-.296.49c-.053.19-.094.397.014.618.067.095.148.19.255.238.108.047.229.063.323.047a1.07 1.07 0 0 0 .538-.269z" fill="#1C1C1C"/>
        <path d="M12.573 24.067c2.179 2.914 8.997 7.822 11.847 7.712 2.058-.08 8.459-6.556 10.18-8.677 1.654-2.043-5.096-5.954-6.118-4.782-1.641 1.9-4.29 6.16-5.07 6.365-.552.142-3.967-.918-9.144-2.882-3.174-1.187-3 .523-1.695 2.264z" fill="#E7B89B"/>
        <path d="m21.704 24.226-1.614 6.967s-4.088-3.23-6.724-5.875c-2.635-2.644-3.254-4.94.484-3.832 3.712 1.109 7.854 2.74 7.854 2.74z" fill="#6935D0"/>
        <path d="M20.212 24.13c-.162.492-.256.998-.377 1.505l-.323 1.473c-.215.997-.43 1.995-.551 3.008 0 .032.04.032.04.016.283-.982.484-1.98.686-2.977.108-.49.202-.982.296-1.488.094-.507.202-1.014.255-1.52.027-.032-.013-.048-.026-.016z" fill="#1C1C1C"/>
        <path opacity=".1" d="m20.803 28.073-.726 3.12s-4.088-3.23-6.724-5.875c-2.098-2.106-2.918-3.99-1.277-4.117l8.727 6.872z" fill="#000"/>
        <path d="M2.824 46.773c.054.048 20.13-1.298 20.306-1.52.228-.3-6.119-20.346-7.72-23.291-.672-1.251-3.926-1.441-5.203-.254C6.993 24.685 4.76 34.28 4.29 37.162c-.794 4.75-1.64 9.453-1.466 9.611z" fill="#9241FF"/>
        <path d="M9.669 26.854c.43 3.658 3.456 14.82 6.468 15.818 2.676.887 9.669-.538 12.842-1.124 1.157-.206-.296-9.817-1.439-9.294-1.371.633-8.727 1.836-9.09 1.646-.39-.19-2.945-4.196-6.092-9.057-2.958-4.591-2.958-.285-2.69 2.011z" fill="#E7B89B"/>
        <path d="M26.438 32.903s3.066-1.821 5.136-2.914c1.157-.617 3.228-1.488 4.277-1.552 1.573-.11 8.256.46 8.149 2.043-.094 1.441-5.77.238-5.77.238s5.837.712 5.393 2.422c-.443 1.71-6.656-.475-6.656-.475s5.97.855 5.23 2.565c-.55 1.283-6.306-.38-6.306-.38s5.123.776 4.613 2.122c-.565 1.488-5.971.27-5.971.27-1.896 3.198-4.034 4.116-5.783 4.322-.39.047-2.313-8.661-2.313-8.661z" fill="#E7B89B"/>
        <path d="M36.51 30.4c4.33.207 6.4 1.6 6.333 1.584-1.479-.617-3.9-1.092-4.585-1.203-.673-.11-1.076-.222-1.762-.348 0-.016 0-.032.014-.032zM35.757 32.76c2.058-.032 4.384.586 5.15.919.068.031.04.047-.026.031-.861-.174-4.25-.791-5.124-.934-.013 0-.013-.016 0-.016zM34.964 34.755c1.842.111 2.662.333 3.967.824.067.015.026.047-.04.031-1.319-.3-2.34-.538-3.927-.823-.027 0-.027-.032 0-.032z" fill="#1C1C1C"/>
        <path d="m16.634 31.066-5.66 4.497s-1.184-5.02-1.588-8.709c-.403-3.69.565-5.858 2.784-2.723 2.246 3.15 4.464 6.935 4.464 6.935z" fill="#6935D0"/>
        <path d="M15.693 30.132c-.444.269-.848.601-1.264.918-.404.301-.807.618-1.21.934-.821.634-1.628 1.267-2.394 1.948-.027.016 0 .047.027.032.86-.57 1.667-1.22 2.487-1.853.404-.317.807-.633 1.197-.95.404-.333.82-.65 1.197-.998 0-.015-.014-.047-.04-.031z" fill="#1C1C1C"/>
        <path d="m11.672 35.009-.685.585-.027.016-.014-.031a37.327 37.327 0 0 1-.403-1.663 59.878 59.878 0 0 1-.35-1.678c-.107-.57-.215-1.125-.296-1.695-.094-.57-.174-1.14-.242-1.71l.31 1.695.322 1.678c.121.554.229 1.124.35 1.678.121.555.242 1.125.363 1.679l-.04-.016.712-.538z" fill="#171B23"/>
        <path d="M9.453 29.863s.148.633.619 1.425z" fill="#1C1C1C"/>
        <path d="M9.453 29.863c.094.253.188.49.296.712.108.238.215.46.323.697a1.51 1.51 0 0 1-.202-.317 2.652 2.652 0 0 1-.175-.348 3.987 3.987 0 0 1-.134-.364c-.054-.111-.081-.254-.108-.38z" fill="#171B23"/>
        <path d="M13.595 26.205s2.353 3.515 3.039 4.877l-.135.127" fill="#1C1C1C"/>
        <path d="M13.595 26.205c.282.38.551.776.82 1.172.269.396.525.791.793 1.203.256.396.511.808.753 1.22.242.41.485.838.686 1.282l-.148.11.135-.126v.016a59.647 59.647 0 0 0-.74-1.235c-.255-.412-.51-.808-.766-1.22l-.767-1.219c-.269-.396-.51-.807-.766-1.203z" fill="#171B23"/>
        <path d="M14.361 26.807c.121.174.215.364.283.57.067.206.12.427.12.649a2.808 2.808 0 0 0-.093-.317c-.027-.11-.068-.206-.095-.3-.053-.206-.134-.396-.215-.602z" fill="#171B23"/>
        <path d="M11.538 21.55c-.027.475 2.139 4.307 4.008 4.845.605.174.564-3.753.564-3.753l.135-.253 1.802-3.5-3.2-4.195-.471-.57s-.43.997-.968 2.232c-.027.064-.054.111-.081.174-.027.064-.067.143-.094.206l-.242.57c-.054.143-.121.285-.175.444-.067.158-.121.3-.188.459-.592 1.52-1.076 3.135-1.09 3.34z" fill="#E7B89B"/>
        <path d="M13.395 16.372c.148 3.325 1.963 5.289 2.837 6.033l1.802-3.5-3.2-4.195-.471-.57c0-.016-.444.981-.968 2.232z" fill="#BB9580"/>
        <path d="M24.555 13.364c-.188 7.078-4.034 7.758-5.406 7.71-1.25-.047-5.5-.363-5.97-7.425-.471-7.062 2.555-9.2 5.419-9.279 2.85-.063 6.145 1.916 5.957 8.994z" fill="#E7B89B"/>
        <path d="M21.005 5.938s.148 1.124-.27 1.884c-.86 1.536-2.595.902-3.267 1.472-.632.539-.551 1.806-1.13 2.344-.793.744-1.734.3-1.91.855-.174.554-.685 2.296-1.357 2.454-.673.159-2.448-12.129 5.984-10.735 0 0 1.183-.333 2.918.839 2.004 1.362 2.434 5.035 2.434 5.035s-.08-.016-.35-.332c-.363-.444-.484-.84-.766-1.14-.43-.46-.7-.349-1.157-.792-.686-.68-1.13-1.884-1.13-1.884z" fill="#1D1E1E"/>
        <path d="M20.924 5.4c.08.49.12.981.107 1.456-.013.475-.08.982-.322 1.378-.229.38-.646.601-1.05.712-.416.111-.86.111-1.317.253-.229.08-.444.19-.619.396-.161.206-.242.46-.322.697-.135.475-.283.934-.592 1.235-.323.3-.753.46-1.184.396-.43-.048-.887-.238-1.317-.08.443-.11.86.111 1.304.19.444.096.941-.031 1.304-.364.377-.332.538-.854.673-1.314.067-.221.161-.443.296-.617.134-.159.322-.27.524-.333.404-.126.86-.142 1.305-.269.228-.063.443-.158.645-.285.188-.127.39-.3.511-.538.242-.46.296-.982.282-1.473a9.211 9.211 0 0 0-.228-1.44z" fill="#171B23"/>
        <path d="M21.045 5.859c.04.459.134.902.282 1.345.148.428.39.855.753 1.14.175.143.39.238.565.317.162.095.336.238.417.396.094.19.175.412.31.602.134.174.309.316.497.411-.162-.142-.323-.285-.417-.475-.108-.19-.161-.396-.256-.617-.107-.254-.282-.38-.484-.507-.188-.11-.376-.19-.524-.317-.31-.253-.538-.617-.713-1.029-.175-.411-.31-.839-.43-1.266z" fill="#171B23"/>
        <path d="M14.214 13.744s-1.156-2.375-2.11-1.948c-.956.428-.256 3.753.766 4.323 1.008.57 1.506-.46 1.506-.46l-.162-1.915z" fill="#E7B89B"/>
        <path d="M12.318 12.746c-.014 0-.027.016-.014.032.7.427 1.009 1.235 1.21 2.058-.188-.332-.47-.538-.86-.3-.027.015 0 .047.014.047.309-.032.524.047.699.348.12.206.201.46.282.697.027.08.148.047.135-.032v-.015c.12-1.046-.458-2.597-1.466-2.835z" fill="#171B23"/>
        <path d="M21.973 15.786s-.995-.253-2.945-.728c0 0-.229 2.328 1.224 2.502 1.223.158 1.72-1.774 1.72-1.774z" fill="#fff"/>
        <path d="M19.19 12.065c-.054.301.067.586.282.634.202.047.417-.159.47-.46.054-.3-.067-.585-.282-.633-.202-.063-.417.143-.47.46zM22.51 12.952c-.053.3.068.586.283.633.202.048.417-.158.47-.459.055-.3-.066-.586-.282-.633-.201-.048-.416.158-.47.46zM22.7 11.274c.51-.222 1.075.079 1.223.665.094.38.66.285.565-.095-.256-.998-1.13-1.52-2.017-1.14-.35.142-.108.712.228.57zM18.624 10.023c.7-.523 1.587-.507 2.22.127.268.269-.081.76-.35.49-.444-.443-1.022-.49-1.533-.126-.296.221-.632-.27-.337-.491z" fill="#0E0E0E"/>
        <path d="M20.87 13.459c.35-1.425-.417-2.898-1.707-3.294-1.305-.396-2.65.46-3 1.885-.349 1.425.418 2.897 1.709 3.293 1.29.38 2.635-.46 2.998-1.884zm-.269-.095c-.309 1.266-1.506 2.01-2.662 1.662-1.157-.348-1.83-1.662-1.52-2.913.31-1.267 1.506-2.011 2.663-1.663 1.156.349 1.829 1.663 1.52 2.914zM26.572 15.121c.35-1.425-.416-2.897-1.707-3.293-1.305-.396-2.65.459-3 1.884-.349 1.425.418 2.898 1.709 3.294 1.29.38 2.635-.46 2.998-1.885zm-.268-.079c-.31 1.267-1.507 2.011-2.663 1.663-1.157-.349-1.829-1.663-1.52-2.914.31-1.266 1.506-2.01 2.663-1.662 1.156.332 1.829 1.646 1.52 2.913z" fill="#fff"/>
    </g>
    <defs>
        <clipPath id="a3nc32mzya">
            <path fill="#fff" d="M0 0h44v109H0z"/>
        </clipPath>
    </defs>
</svg>
