<svg width="544" height="115" viewBox="0 0 544 115" fill="none" xmlns="http://www.w3.org/2000/svg">
    <g clip-path="url(#6aj518twua)">
        <path d="M0 8a8 8 0 0 1 8-8h528a8 8 0 0 1 8 8v107H0V8z" fill="#DCCAFD"/>
        <path d="m98.84 68.84-5.2-.16c.04.72-.04 1.64-.12 2.44-.44 3.96-1.16 9.84-1.16 15.08 0 5.88 1.16 11.8 2.36 15.4l4.6-1.36C98 96.2 96.84 91.72 96.84 85.4c0-4.96.68-10.72 1.44-14.44.16-.64.32-1.36.56-2.12zm-7.16 4.4c-2.44 0-5.92-.32-7.36-.52l.12 4.6c1.88.08 5 .28 7.12.28 6.04 0 14.44-.6 19.92-1.6l-.04-4.6c-6.12 1.48-12.16 1.84-19.76 1.84zm17.28 5.88-4.92-1.2c-.04.88-.32 2.6-.6 3.44-1.6 5.52-4.32 9.08-7.24 11.76-2.44 2.28-5.12 3.6-7 3.6-1.32 0-1.84-.68-1.84-2 0-2.68 2.84-6.52 6.84-8.4 1.96-.88 4.84-1.92 8.48-1.92 5.4 0 8.32 2.88 8.32 6.28 0 3.96-3.16 7.84-10.88 8.68l2.68 4.24c9.8-1.52 13.16-7 13.16-12.68 0-6.24-5.52-10.56-13-10.56-3 0-6.28.6-8.92 1.56-6.36 2.32-11.4 8.2-11.4 13.84 0 4.08 2.44 5.84 5.36 5.84 3.48 0 6.96-1.76 9.56-3.68 3.8-2.8 7.92-8.2 10.2-15.4.28-.84.88-2.68 1.2-3.4zm13.32-4.32.36 4.68c1.72.08 3.4.12 5 .12 5.12.04 10.88-1 14.32-1.96l-.12-4.64c-3.88 1.24-9.28 2.08-14.24 2.08-1.44 0-3.6-.08-5.32-.28zm15.56-6-5.52-.52c-.12 3.08-1 6.8-1.96 9.68-1.56 4.32-5.16 11.32-8.76 15.72l4.84 2.48c3.4-4.72 7-12.16 8.84-17.92 1.08-3.4 2.04-7.32 2.56-9.44zm9.4 12.48h-5.04c.2 4.2.64 11.56.64 13.96 0 2.24-.88 3.76-3.6 3.76-2.2 0-3.48-1.04-3.48-2.52 0-1.4 1.52-2.4 3.84-2.4 6.04 0 10.6 4.12 13.48 6.8l2.64-4.32c-3.32-3-8.84-6.52-15.84-6.52-5.56 0-8.84 3.04-8.84 6.92 0 4.4 3.92 6.64 8.88 6.64 5.72 0 7.72-2.92 7.72-6.64 0-2.24-.36-8.2-.44-10.56-.04-1.76-.08-3.44.04-5.12zm6.88 2.12 2.84-4.24c-2.08-1.48-7-4.16-9.88-5.4l-2.6 3.92c2.76 1.24 7.32 3.84 9.64 5.72zm23.8-14.32-6.12-.48c.12.96.08 2.6-.12 4.08-.28 2.36-1.2 6.76-2.2 10.52-1.52 5.6-4.56 13.96-6.92 18l5.56 1.88c2.2-4.76 4.88-12.92 6.32-18.52 1.08-4.08 2.08-8.96 2.64-11.68.2-.88.56-2.68.84-3.8zm-10.2 6c-1.64 0-2.96-.08-5.04-.32l.16 5c1.4.08 2.88.16 4.84.16 4.52 0 10.8-.68 15.76-1.84v-5c-5.2 1.24-10.84 2-15.72 2zm12.56 6.12v4.68c2.52-.32 5-.44 7.76-.44 2.4 0 4.84.28 6.88.52l.08-4.8c-2.32-.24-4.72-.36-7-.36-2.6 0-5.48.16-7.72.4zm2.16 10.04-4.76-.44c-.32 1.56-.68 3.48-.68 5.36 0 4.04 3.6 6.32 10.36 6.32 3.2 0 5.88-.24 8.12-.56l.2-5.08c-2.84.52-5.6.8-8.28.8-4.32 0-5.48-1.32-5.48-3.08 0-.88.24-2.16.52-3.32zm32.16-14.8.04 4.8c2.36.16 4.64.24 7 .24 4.8-.04 9.84-.36 14.04-1v-4.96c-4.16.88-9.16 1.28-14.04 1.28-2.44 0-4.72-.12-7.04-.36zm15.24-6.72h-5.72c.12.76.24 2 .24 2.64.04 1.2.08 3.88.08 6.92 0 5.76.52 12.48.52 15.24 0 2.36-.84 3.64-3.28 3.64-2.16 0-3.76-.72-3.76-2.36 0-1.52 1.56-2.44 3.84-2.44 4.52 0 8.56 2.68 13.16 6.96l2.72-4.2c-3.12-2.88-7.96-6.64-15.48-6.64-5.48 0-8.92 2.8-8.92 6.88 0 4.2 3.44 6.48 9 6.48 5.76 0 7.84-3.04 7.84-7.24 0-3.8-.64-9-.64-16.36 0-2.88.08-5.64.16-6.96.04-.84.12-1.8.24-2.56zm-19.52.4-5.56-.44c-.04 1.24-.2 2.8-.36 3.92-.48 3.08-1.68 10.64-1.68 16.68 0 5.4.8 10 1.6 12.76l4.52-.32c-.04-.56-.04-1.24-.04-1.68-.04-.4.08-1.28.2-1.84.44-2.2 1.76-6.24 2.88-9.56l-2.48-1.96c-.56 1.36-1.24 2.72-1.8 4.12-.12-.8-.16-1.84-.16-2.6 0-4 1.32-12.8 1.92-15.48.16-.72.64-2.8.96-3.6zm46.416 11.56a6.308 6.308 0 0 1 2.6-2.48c1.12-.613 2.44-.92 3.96-.92 1.787 0 3.4.467 4.84 1.4 1.467.933 2.614 2.267 3.44 4 .854 1.733 1.28 3.76 1.28 6.08 0 2.32-.426 4.36-1.28 6.12-.826 1.733-1.973 3.067-3.44 4-1.44.933-3.053 1.4-4.84 1.4-1.52 0-2.84-.293-3.96-.88-1.12-.613-1.986-1.453-2.6-2.52V101h-7.84V71.4h7.84v10.28zm8.16 8.08c0-1.467-.4-2.6-1.2-3.4-.773-.827-1.733-1.24-2.88-1.24-1.146 0-2.12.413-2.92 1.24-.773.827-1.16 1.96-1.16 3.4 0 1.467.387 2.613 1.16 3.44.8.827 1.774 1.24 2.92 1.24 1.147 0 2.107-.413 2.88-1.24.8-.853 1.2-2 1.2-3.44zm32.628-.24c0 .613-.04 1.227-.12 1.84h-14.84c.08 1.227.413 2.147 1 2.76.613.587 1.386.88 2.32.88 1.306 0 2.24-.587 2.8-1.76h8.36a9.823 9.823 0 0 1-2.04 4.16c-.987 1.2-2.24 2.147-3.76 2.84-1.52.693-3.2 1.04-5.04 1.04-2.214 0-4.187-.467-5.92-1.4-1.707-.933-3.054-2.267-4.04-4-.96-1.733-1.44-3.773-1.44-6.12s.48-4.373 1.44-6.08c.96-1.733 2.293-3.067 4-4 1.733-.933 3.72-1.4 5.96-1.4 2.213 0 4.173.453 5.88 1.36 1.706.907 3.04 2.213 4 3.92.96 1.68 1.44 3.667 1.44 5.96zm-8-1.96c0-.96-.32-1.707-.96-2.24-.64-.56-1.44-.84-2.4-.84s-1.747.267-2.36.8c-.614.507-1.014 1.267-1.2 2.28h6.92zm32.648 1.96c0 .613-.04 1.227-.12 1.84h-14.84c.08 1.227.414 2.147 1 2.76.614.587 1.387.88 2.32.88 1.307 0 2.24-.587 2.8-1.76h8.36a9.8 9.8 0 0 1-2.04 4.16c-.986 1.2-2.24 2.147-3.76 2.84-1.52.693-3.2 1.04-5.04 1.04-2.213 0-4.186-.467-5.92-1.4-1.706-.933-3.053-2.267-4.04-4-.96-1.733-1.44-3.773-1.44-6.12s.48-4.373 1.44-6.08c.96-1.733 2.294-3.067 4-4 1.734-.933 3.72-1.4 5.96-1.4 2.214 0 4.174.453 5.88 1.36 1.707.907 3.04 2.213 4 3.92.96 1.68 1.44 3.667 1.44 5.96zm-8-1.96c0-.96-.32-1.707-.96-2.24-.64-.56-1.44-.84-2.4-.84s-1.746.267-2.36.8c-.613.507-1.013 1.267-1.2 2.28h6.92zm25.889-9.2c2.586 0 4.64.867 6.16 2.6 1.52 1.707 2.28 4.027 2.28 6.96V101h-7.84V88.96c0-1.28-.334-2.28-1-3-.667-.747-1.56-1.12-2.68-1.12-1.174 0-2.094.373-2.76 1.12-.667.72-1 1.72-1 3V101h-7.84V78.56h7.84v3.2c.693-1.013 1.626-1.827 2.8-2.44 1.173-.64 2.52-.96 4.04-.96zm28.238-5.56V101h-7.84V72.8h7.84zm19.144 5.56c2.587 0 4.64.867 6.16 2.6 1.52 1.707 2.28 4.027 2.28 6.96V101h-7.84V88.96c0-1.28-.333-2.28-1-3-.666-.747-1.56-1.12-2.68-1.12-1.173 0-2.093.373-2.76 1.12-.666.72-1 1.72-1 3V101h-7.84V78.56h7.84v3.2c.694-1.013 1.627-1.827 2.8-2.44 1.174-.64 2.52-.96 4.04-.96zm23.502 15.24 4.2-15.04h8.36l-7.72 22.44h-9.76l-7.72-22.44h8.36l4.28 15.04zm19.177-17.12c-1.387 0-2.507-.373-3.36-1.12-.827-.773-1.24-1.733-1.24-2.88 0-1.173.413-2.147 1.24-2.92.853-.773 1.973-1.16 3.36-1.16 1.36 0 2.453.387 3.28 1.16.853.773 1.28 1.747 1.28 2.92 0 1.147-.427 2.107-1.28 2.88-.827.747-1.92 1.12-3.28 1.12zm3.88 2.08V101h-7.84V78.56h7.84zm17.705 15.76V101h-3.4c-5.734 0-8.6-2.84-8.6-8.52v-7.4h-2.76v-6.52h2.76v-5.44h7.88v5.44h4.08v6.52h-4.08v7.52c0 .613.133 1.053.4 1.32.293.267.773.4 1.44.4h2.28zm25.036-4.8c0 .613-.04 1.227-.12 1.84h-14.84c.08 1.227.413 2.147 1 2.76.613.587 1.386.88 2.32.88 1.306 0 2.24-.587 2.8-1.76h8.36a9.823 9.823 0 0 1-2.04 4.16c-.987 1.2-2.24 2.147-3.76 2.84-1.52.693-3.2 1.04-5.04 1.04-2.214 0-4.187-.467-5.92-1.4-1.707-.933-3.054-2.267-4.04-4-.96-1.733-1.44-3.773-1.44-6.12s.48-4.373 1.44-6.08c.96-1.733 2.293-3.067 4-4 1.733-.933 3.72-1.4 5.96-1.4 2.213 0 4.173.453 5.88 1.36 1.706.907 3.04 2.213 4 3.92.96 1.68 1.44 3.667 1.44 5.96zm-8-1.96c0-.96-.32-1.707-.96-2.24-.64-.56-1.44-.84-2.4-.84s-1.747.267-2.36.8c-.614.507-1.014 1.267-1.2 2.28h6.92zm9.928 2.2c0-2.32.413-4.347 1.24-6.08.853-1.733 2.013-3.067 3.48-4 1.467-.933 3.093-1.4 4.88-1.4 1.44 0 2.72.307 3.84.92 1.147.587 2.04 1.4 2.68 2.44V71.4h7.88V101h-7.88v-3.12c-.613 1.04-1.48 1.867-2.6 2.48s-2.44.92-3.96.92c-1.787 0-3.413-.467-4.88-1.4-1.44-.933-2.587-2.267-3.44-4-.827-1.76-1.24-3.8-1.24-6.12zm16.16 0c0-1.44-.4-2.573-1.2-3.4-.773-.827-1.733-1.24-2.88-1.24-1.173 0-2.147.413-2.92 1.24-.773.8-1.16 1.933-1.16 3.4 0 1.44.387 2.587 1.16 3.44.773.827 1.747 1.24 2.92 1.24 1.147 0 2.107-.413 2.88-1.24.8-.827 1.2-1.973 1.2-3.44z" fill="#BA98FD"/>
        <path d="m95.84 66.84-5.2-.16c.04.72-.04 1.64-.12 2.44-.44 3.96-1.16 9.84-1.16 15.08 0 5.88 1.16 11.8 2.36 15.4l4.6-1.36C95 94.2 93.84 89.72 93.84 83.4c0-4.96.68-10.72 1.44-14.44.16-.64.32-1.36.56-2.12zm-7.16 4.4c-2.44 0-5.92-.32-7.36-.52l.12 4.6c1.88.08 5 .28 7.12.28 6.04 0 14.44-.6 19.92-1.6l-.04-4.6c-6.12 1.48-12.16 1.84-19.76 1.84zm17.28 5.88-4.92-1.2c-.04.88-.32 2.6-.6 3.44-1.6 5.52-4.32 9.08-7.24 11.76-2.44 2.28-5.12 3.6-7 3.6-1.32 0-1.84-.68-1.84-2 0-2.68 2.84-6.52 6.84-8.4 1.96-.88 4.84-1.92 8.48-1.92 5.4 0 8.32 2.88 8.32 6.28 0 3.96-3.16 7.84-10.88 8.68l2.68 4.24c9.8-1.52 13.16-7 13.16-12.68 0-6.24-5.52-10.56-13-10.56-3 0-6.28.6-8.92 1.56-6.36 2.32-11.4 8.2-11.4 13.84 0 4.08 2.44 5.84 5.36 5.84 3.48 0 6.96-1.76 9.56-3.68 3.8-2.8 7.92-8.2 10.2-15.4.28-.84.88-2.68 1.2-3.4zm13.32-4.32.36 4.68c1.72.08 3.4.12 5 .12 5.12.04 10.88-1 14.32-1.96l-.12-4.64c-3.88 1.24-9.28 2.08-14.24 2.08-1.44 0-3.6-.08-5.32-.28zm15.56-6-5.52-.52c-.12 3.08-1 6.8-1.96 9.68-1.56 4.32-5.16 11.32-8.76 15.72l4.84 2.48c3.4-4.72 7-12.16 8.84-17.92 1.08-3.4 2.04-7.32 2.56-9.44zm9.4 12.48h-5.04c.2 4.2.64 11.56.64 13.96 0 2.24-.88 3.76-3.6 3.76-2.2 0-3.48-1.04-3.48-2.52 0-1.4 1.52-2.4 3.84-2.4 6.04 0 10.6 4.12 13.48 6.8l2.64-4.32c-3.32-3-8.84-6.52-15.84-6.52-5.56 0-8.84 3.04-8.84 6.92 0 4.4 3.92 6.64 8.88 6.64 5.72 0 7.72-2.92 7.72-6.64 0-2.24-.36-8.2-.44-10.56-.04-1.76-.08-3.44.04-5.12zm6.88 2.12 2.84-4.24c-2.08-1.48-7-4.16-9.88-5.4l-2.6 3.92c2.76 1.24 7.32 3.84 9.64 5.72zm23.8-14.32-6.12-.48c.12.96.08 2.6-.12 4.08-.28 2.36-1.2 6.76-2.2 10.52-1.52 5.6-4.56 13.96-6.92 18l5.56 1.88c2.2-4.76 4.88-12.92 6.32-18.52 1.08-4.08 2.08-8.96 2.64-11.68.2-.88.56-2.68.84-3.8zm-10.2 6c-1.64 0-2.96-.08-5.04-.32l.16 5c1.4.08 2.88.16 4.84.16 4.52 0 10.8-.68 15.76-1.84v-5c-5.2 1.24-10.84 2-15.72 2zm12.56 6.12v4.68c2.52-.32 5-.44 7.76-.44 2.4 0 4.84.28 6.88.52l.08-4.8c-2.32-.24-4.72-.36-7-.36-2.6 0-5.48.16-7.72.4zm2.16 10.04-4.76-.44c-.32 1.56-.68 3.48-.68 5.36 0 4.04 3.6 6.32 10.36 6.32 3.2 0 5.88-.24 8.12-.56l.2-5.08c-2.84.52-5.6.8-8.28.8-4.32 0-5.48-1.32-5.48-3.08 0-.88.24-2.16.52-3.32zm32.16-14.8.04 4.8c2.36.16 4.64.24 7 .24 4.8-.04 9.84-.36 14.04-1v-4.96c-4.16.88-9.16 1.28-14.04 1.28-2.44 0-4.72-.12-7.04-.36zm15.24-6.72h-5.72c.12.76.24 2 .24 2.64.04 1.2.08 3.88.08 6.92 0 5.76.52 12.48.52 15.24 0 2.36-.84 3.64-3.28 3.64-2.16 0-3.76-.72-3.76-2.36 0-1.52 1.56-2.44 3.84-2.44 4.52 0 8.56 2.68 13.16 6.96l2.72-4.2c-3.12-2.88-7.96-6.64-15.48-6.64-5.48 0-8.92 2.8-8.92 6.88 0 4.2 3.44 6.48 9 6.48 5.76 0 7.84-3.04 7.84-7.24 0-3.8-.64-9-.64-16.36 0-2.88.08-5.64.16-6.96.04-.84.12-1.8.24-2.56zm-19.52.4-5.56-.44c-.04 1.24-.2 2.8-.36 3.92-.48 3.08-1.68 10.64-1.68 16.68 0 5.4.8 10 1.6 12.76l4.52-.32c-.04-.56-.04-1.24-.04-1.68-.04-.4.08-1.28.2-1.84.44-2.2 1.76-6.24 2.88-9.56l-2.48-1.96c-.56 1.36-1.24 2.72-1.8 4.12-.12-.8-.16-1.84-.16-2.6 0-4 1.32-12.8 1.92-15.48.16-.72.64-2.8.96-3.6zm46.416 11.56a6.308 6.308 0 0 1 2.6-2.48c1.12-.613 2.44-.92 3.96-.92 1.787 0 3.4.467 4.84 1.4 1.467.933 2.614 2.267 3.44 4 .854 1.733 1.28 3.76 1.28 6.08 0 2.32-.426 4.36-1.28 6.12-.826 1.733-1.973 3.067-3.44 4-1.44.933-3.053 1.4-4.84 1.4-1.52 0-2.84-.293-3.96-.88-1.12-.613-1.986-1.453-2.6-2.52V99h-7.84V69.4h7.84v10.28zm8.16 8.08c0-1.467-.4-2.6-1.2-3.4-.773-.827-1.733-1.24-2.88-1.24-1.146 0-2.12.413-2.92 1.24-.773.827-1.16 1.96-1.16 3.4 0 1.467.387 2.613 1.16 3.44.8.827 1.774 1.24 2.92 1.24 1.147 0 2.107-.413 2.88-1.24.8-.853 1.2-2 1.2-3.44zm32.628-.24c0 .613-.04 1.227-.12 1.84h-14.84c.08 1.227.413 2.147 1 2.76.613.587 1.386.88 2.32.88 1.306 0 2.24-.587 2.8-1.76h8.36a9.823 9.823 0 0 1-2.04 4.16c-.987 1.2-2.24 2.147-3.76 2.84-1.52.693-3.2 1.04-5.04 1.04-2.214 0-4.187-.467-5.92-1.4-1.707-.933-3.054-2.267-4.04-4-.96-1.733-1.44-3.773-1.44-6.12s.48-4.373 1.44-6.08c.96-1.733 2.293-3.067 4-4 1.733-.933 3.72-1.4 5.96-1.4 2.213 0 4.173.453 5.88 1.36 1.706.907 3.04 2.213 4 3.92.96 1.68 1.44 3.667 1.44 5.96zm-8-1.96c0-.96-.32-1.707-.96-2.24-.64-.56-1.44-.84-2.4-.84s-1.747.267-2.36.8c-.614.507-1.014 1.267-1.2 2.28h6.92zm32.648 1.96c0 .613-.04 1.227-.12 1.84h-14.84c.08 1.227.414 2.147 1 2.76.614.587 1.387.88 2.32.88 1.307 0 2.24-.587 2.8-1.76h8.36a9.8 9.8 0 0 1-2.04 4.16c-.986 1.2-2.24 2.147-3.76 2.84-1.52.693-3.2 1.04-5.04 1.04-2.213 0-4.186-.467-5.92-1.4-1.706-.933-3.053-2.267-4.04-4-.96-1.733-1.44-3.773-1.44-6.12s.48-4.373 1.44-6.08c.96-1.733 2.294-3.067 4-4 1.734-.933 3.72-1.4 5.96-1.4 2.214 0 4.174.453 5.88 1.36 1.707.907 3.04 2.213 4 3.92.96 1.68 1.44 3.667 1.44 5.96zm-8-1.96c0-.96-.32-1.707-.96-2.24-.64-.56-1.44-.84-2.4-.84s-1.746.267-2.36.8c-.613.507-1.013 1.267-1.2 2.28h6.92zm25.889-9.2c2.586 0 4.64.867 6.16 2.6 1.52 1.707 2.28 4.027 2.28 6.96V99h-7.84V86.96c0-1.28-.334-2.28-1-3-.667-.747-1.56-1.12-2.68-1.12-1.174 0-2.094.373-2.76 1.12-.667.72-1 1.72-1 3V99h-7.84V76.56h7.84v3.2c.693-1.013 1.626-1.827 2.8-2.44 1.173-.64 2.52-.96 4.04-.96zm28.238-5.56V99h-7.84V70.8h7.84zm19.144 5.56c2.587 0 4.64.867 6.16 2.6 1.52 1.707 2.28 4.027 2.28 6.96V99h-7.84V86.96c0-1.28-.333-2.28-1-3-.666-.747-1.56-1.12-2.68-1.12-1.173 0-2.093.373-2.76 1.12-.666.72-1 1.72-1 3V99h-7.84V76.56h7.84v3.2c.694-1.013 1.627-1.827 2.8-2.44 1.174-.64 2.52-.96 4.04-.96zm23.502 15.24 4.2-15.04h8.36L412.785 99h-9.76l-7.72-22.44h8.36l4.28 15.04zm19.177-17.12c-1.387 0-2.507-.373-3.36-1.12-.827-.773-1.24-1.733-1.24-2.88 0-1.173.413-2.147 1.24-2.92.853-.773 1.973-1.16 3.36-1.16 1.36 0 2.453.387 3.28 1.16.853.773 1.28 1.747 1.28 2.92 0 1.147-.427 2.107-1.28 2.88-.827.747-1.92 1.12-3.28 1.12zm3.88 2.08V99h-7.84V76.56h7.84zm17.705 15.76V99h-3.4c-5.734 0-8.6-2.84-8.6-8.52v-7.4h-2.76v-6.52h2.76v-5.44h7.88v5.44h4.08v6.52h-4.08v7.52c0 .613.133 1.053.4 1.32.293.267.773.4 1.44.4h2.28zm25.036-4.8c0 .613-.04 1.227-.12 1.84h-14.84c.08 1.227.413 2.147 1 2.76.613.587 1.386.88 2.32.88 1.306 0 2.24-.587 2.8-1.76h8.36a9.823 9.823 0 0 1-2.04 4.16c-.987 1.2-2.24 2.147-3.76 2.84-1.52.693-3.2 1.04-5.04 1.04-2.214 0-4.187-.467-5.92-1.4-1.707-.933-3.054-2.267-4.04-4-.96-1.733-1.44-3.773-1.44-6.12s.48-4.373 1.44-6.08c.96-1.733 2.293-3.067 4-4 1.733-.933 3.72-1.4 5.96-1.4 2.213 0 4.173.453 5.88 1.36 1.706.907 3.04 2.213 4 3.92.96 1.68 1.44 3.667 1.44 5.96zm-8-1.96c0-.96-.32-1.707-.96-2.24-.64-.56-1.44-.84-2.4-.84s-1.747.267-2.36.8c-.614.507-1.014 1.267-1.2 2.28h6.92zm9.928 2.2c0-2.32.413-4.347 1.24-6.08.853-1.733 2.013-3.067 3.48-4 1.467-.933 3.093-1.4 4.88-1.4 1.44 0 2.72.307 3.84.92 1.147.587 2.04 1.4 2.68 2.44V69.4h7.88V99h-7.88v-3.12c-.613 1.04-1.48 1.867-2.6 2.48s-2.44.92-3.96.92c-1.787 0-3.413-.467-4.88-1.4-1.44-.933-2.587-2.267-3.44-4-.827-1.76-1.24-3.8-1.24-6.12zm16.16 0c0-1.44-.4-2.573-1.2-3.4-.773-.827-1.733-1.24-2.88-1.24-1.173 0-2.147.413-2.92 1.24-.773.8-1.16 1.933-1.16 3.4 0 1.44.387 2.587 1.16 3.44.773.827 1.747 1.24 2.92 1.24 1.147 0 2.107-.413 2.88-1.24.8-.827 1.2-1.973 1.2-3.44z" fill="#FCFCFD"/>
        <rect x="70" y="4" width="168" height="46" rx="4" fill="#A97FFD"/>
        <path d="m109.88 10.8-9.92 19.24V39h-7.88v-8.96L82.16 10.8h8.96l4.96 10.88 4.96-10.88h8.84zm12.847 28.48c-2.24 0-4.253-.467-6.04-1.4a10.35 10.35 0 0 1-4.16-4c-1.013-1.733-1.52-3.773-1.52-6.12 0-2.32.507-4.347 1.52-6.08 1.04-1.733 2.44-3.067 4.2-4 1.787-.933 3.8-1.4 6.04-1.4s4.24.467 6 1.4a10.283 10.283 0 0 1 4.2 4c1.04 1.733 1.56 3.76 1.56 6.08 0 2.32-.52 4.36-1.56 6.12a10.283 10.283 0 0 1-4.2 4c-1.787.933-3.8 1.4-6.04 1.4zm0-6.8c1.093 0 2-.4 2.72-1.2.747-.827 1.12-2 1.12-3.52s-.373-2.68-1.12-3.48c-.72-.8-1.613-1.2-2.68-1.2-1.067 0-1.96.4-2.68 1.2-.72.8-1.08 1.96-1.08 3.48 0 1.547.347 2.72 1.04 3.52.693.8 1.587 1.2 2.68 1.2zm37.95-15.92V39h-7.88v-3.2c-.667 1.013-1.587 1.84-2.76 2.48-1.174.613-2.52.92-4.04.92-2.614 0-4.68-.853-6.2-2.56-1.494-1.733-2.24-4.08-2.24-7.04V16.56h7.8V28.6c0 1.28.333 2.293 1 3.04.693.72 1.6 1.08 2.72 1.08 1.146 0 2.053-.36 2.72-1.08.666-.747 1-1.76 1-3.04V16.56h7.88zm6.381-5.76h7.92l-4.6 11.28h-5.24l1.92-11.28zm22.669 20.8 4.2-15.04h8.36L194.567 39h-9.76l-7.72-22.44h8.36l4.28 15.04zm36.656-4.08c0 .613-.04 1.227-.12 1.84h-14.84c.08 1.227.413 2.147 1 2.76.613.587 1.387.88 2.32.88 1.307 0 2.24-.587 2.8-1.76h8.36a9.823 9.823 0 0 1-2.04 4.16c-.987 1.2-2.24 2.147-3.76 2.84-1.52.693-3.2 1.04-5.04 1.04-2.213 0-4.187-.467-5.92-1.4-1.707-.933-3.053-2.267-4.04-4-.96-1.733-1.44-3.773-1.44-6.12s.48-4.373 1.44-6.08c.96-1.733 2.293-3.067 4-4 1.733-.933 3.72-1.4 5.96-1.4 2.213 0 4.173.453 5.88 1.36 1.707.907 3.04 2.213 4 3.92.96 1.68 1.44 3.667 1.44 5.96zm-8-1.96c0-.96-.32-1.707-.96-2.24-.64-.56-1.44-.84-2.4-.84s-1.747.267-2.36.8c-.613.507-1.013 1.267-1.2 2.28h6.92z" fill="#BA98FD"/>
        <path d="m106.88 10.8-9.92 19.24V39h-7.88v-8.96L79.16 10.8h8.96l4.96 10.88 4.96-10.88h8.84zm12.847 28.48c-2.24 0-4.253-.467-6.04-1.4a10.35 10.35 0 0 1-4.16-4c-1.013-1.733-1.52-3.773-1.52-6.12 0-2.32.507-4.347 1.52-6.08 1.04-1.733 2.44-3.067 4.2-4 1.787-.933 3.8-1.4 6.04-1.4s4.24.467 6 1.4a10.283 10.283 0 0 1 4.2 4c1.04 1.733 1.56 3.76 1.56 6.08 0 2.32-.52 4.36-1.56 6.12a10.283 10.283 0 0 1-4.2 4c-1.787.933-3.8 1.4-6.04 1.4zm0-6.8c1.093 0 2-.4 2.72-1.2.747-.827 1.12-2 1.12-3.52s-.373-2.68-1.12-3.48c-.72-.8-1.613-1.2-2.68-1.2-1.067 0-1.96.4-2.68 1.2-.72.8-1.08 1.96-1.08 3.48 0 1.547.347 2.72 1.04 3.52.693.8 1.587 1.2 2.68 1.2zm37.95-15.92V39h-7.88v-3.2c-.667 1.013-1.587 1.84-2.76 2.48-1.174.613-2.52.92-4.04.92-2.614 0-4.68-.853-6.2-2.56-1.494-1.733-2.24-4.08-2.24-7.04V16.56h7.8V28.6c0 1.28.333 2.293 1 3.04.693.72 1.6 1.08 2.72 1.08 1.146 0 2.053-.36 2.72-1.08.666-.747 1-1.76 1-3.04V16.56h7.88zm6.381-5.76h7.92l-4.6 11.28h-5.24l1.92-11.28zm22.669 20.8 4.2-15.04h8.36L191.567 39h-9.76l-7.72-22.44h8.36l4.28 15.04zm36.656-4.08c0 .613-.04 1.227-.12 1.84h-14.84c.08 1.227.413 2.147 1 2.76.613.587 1.387.88 2.32.88 1.307 0 2.24-.587 2.8-1.76h8.36a9.823 9.823 0 0 1-2.04 4.16c-.987 1.2-2.24 2.147-3.76 2.84-1.52.693-3.2 1.04-5.04 1.04-2.213 0-4.187-.467-5.92-1.4-1.707-.933-3.053-2.267-4.04-4-.96-1.733-1.44-3.773-1.44-6.12s.48-4.373 1.44-6.08c.96-1.733 2.293-3.067 4-4 1.733-.933 3.72-1.4 5.96-1.4 2.213 0 4.173.453 5.88 1.36 1.707.907 3.04 2.213 4 3.92.96 1.68 1.44 3.667 1.44 5.96zm-8-1.96c0-.96-.32-1.707-.96-2.24-.64-.56-1.44-.84-2.4-.84s-1.747.267-2.36.8c-.613.507-1.013 1.267-1.2 2.28h6.92z" fill="#FCFCFD"/>
    </g>
    <defs>
        <clipPath id="6aj518twua">
            <path d="M0 8a8 8 0 0 1 8-8h528a8 8 0 0 1 8 8v107H0V8z" fill="#fff"/>
        </clipPath>
    </defs>
</svg>
